<?xml version="1.0" encoding="UTF-8" standalone="no"?>
<!DOCTYPE svg PUBLIC "-//W3C//DTD SVG 1.1//EN"
 "http://www.w3.org/Graphics/SVG/1.1/DTD/svg11.dtd">
<!-- Generated by graphviz version 2.41.20190326.1719 (20190326.1719)
 -->
<!-- Title: security_bz_flowchart Pages: 1 -->
<svg width="1479pt" height="584pt"
 viewBox="0.00 0.00 1479.31 584.00" xmlns="http://www.w3.org/2000/svg" xmlns:xlink="http://www.w3.org/1999/xlink">
<g id="graph0" class="graph" transform="scale(1 1) rotate(0) translate(4 580)">
<title>security_bz_flowchart</title>
<polygon fill="white" stroke="transparent" points="-4,4 -4,-580 1475.31,-580 1475.31,4 -4,4"/>
<!-- 0 &#45; New Security Bug -->
<g id="node1" class="node">
<title>0 &#45; New Security Bug</title>
<text text-anchor="middle" x="230.76" y="-554.2" font-family="Times New Roman,serif" font-size="16.00">0 &#45; New Security Bug</text>
</g>
<!-- 1 &#45; Triage -->
<g id="node2" class="node">
<title>1 &#45; Triage</title>
<text text-anchor="middle" x="513.46" y="-554.2" font-family="Times New Roman,serif" font-size="16.00">1 &#45; Triage</text>
</g>
<!-- 0 &#45; New Security Bug&#45;&gt;1 &#45; Triage -->
<g id="edge1" class="edge">
<title>0 &#45; New Security Bug&#45;&gt;1 &#45; Triage</title>
<path fill="none" stroke="black" stroke-dasharray="5,2" d="M306.98,-558C358.68,-558 425.52,-558 468.7,-558"/>
<polygon fill="black" stroke="black" points="474.89,-558 468.89,-560.7 471.89,-558 468.89,-558 468.89,-558 468.89,-558 471.89,-558 468.89,-555.3 474.89,-558 474.89,-558"/>
</g>
<!-- 0.1 &#45; Code only? -->
<g id="node7" class="node">
<title>0.1 &#45; Code only?</title>
<polygon fill="none" stroke="black" points="230.76,-504 168.02,-486 230.76,-468 293.5,-486 230.76,-504"/>
<text text-anchor="middle" x="230.76" y="-483.8" font-family="Times New Roman,serif" font-size="9.00">0.1 &#45; Code only?</text>
</g>
<!-- 0 &#45; New Security Bug&#45;&gt;0.1 &#45; Code only? -->
<g id="edge8" class="edge">
<title>0 &#45; New Security Bug&#45;&gt;0.1 &#45; Code only?</title>
<path fill="none" stroke="black" stroke-dasharray="5,2" d="M230.76,-539.95C230.76,-530.11 230.76,-520.26 230.76,-510.41"/>
<polygon fill="black" stroke="black" points="230.76,-504.28 233.46,-510.28 230.76,-507.28 230.76,-510.28 230.76,-510.28 230.76,-510.28 230.76,-507.28 228.06,-510.28 230.76,-504.28 230.76,-504.28"/>
</g>
<!-- 2 &#45; Mitigation -->
<g id="node3" class="node">
<title>2 &#45; Mitigation</title>
<text text-anchor="middle" x="757.78" y="-554.2" font-family="Times New Roman,serif" font-size="16.00">2 &#45; Mitigation</text>
</g>
<!-- 1 &#45; Triage&#45;&gt;2 &#45; Mitigation -->
<g id="edge2" class="edge">
<title>1 &#45; Triage&#45;&gt;2 &#45; Mitigation</title>
<path fill="none" stroke="black" stroke-dasharray="5,2" d="M552.06,-558C591.5,-558 653.97,-558 699.54,-558"/>
<polygon fill="black" stroke="black" points="705.57,-558 699.57,-560.7 702.57,-558 699.57,-558 699.57,-558 699.57,-558 702.57,-558 699.57,-555.3 705.57,-558 705.57,-558"/>
</g>
<!-- 1.1 &#45; Impact stable tag or UDK branch? -->
<g id="node15" class="node">
<title>1.1 &#45; Impact stable tag or UDK branch?</title>
<polygon fill="none" stroke="black" points="513.46,-504 383.81,-486 513.46,-468 643.1,-486 513.46,-504"/>
<text text-anchor="middle" x="513.46" y="-483.8" font-family="Times New Roman,serif" font-size="9.00">1.1 &#45; Impact stable tag or UDK branch?</text>
</g>
<!-- 1 &#45; Triage&#45;&gt;1.1 &#45; Impact stable tag or UDK branch? -->
<g id="edge6" class="edge">
<title>1 &#45; Triage&#45;&gt;1.1 &#45; Impact stable tag or UDK branch?</title>
<path fill="none" stroke="black" stroke-dasharray="5,2" d="M513.46,-539.95C513.46,-530.11 513.46,-520.26 513.46,-510.41"/>
<polygon fill="black" stroke="black" points="513.46,-504.28 516.16,-510.28 513.46,-507.28 513.46,-510.28 513.46,-510.28 513.46,-510.28 513.46,-507.28 510.76,-510.28 513.46,-504.28 513.46,-504.28"/>
</g>
<!-- 3 &#45; Embargo -->
<g id="node4" class="node">
<title>3 &#45; Embargo</title>
<text text-anchor="middle" x="933.79" y="-554.2" font-family="Times New Roman,serif" font-size="16.00">3 &#45; Embargo</text>
</g>
<!-- 2 &#45; Mitigation&#45;&gt;3 &#45; Embargo -->
<g id="edge3" class="edge">
<title>2 &#45; Mitigation&#45;&gt;3 &#45; Embargo</title>
<path fill="none" stroke="black" stroke-dasharray="5,2" d="M810.05,-558C832.04,-558 857.72,-558 879.89,-558"/>
<polygon fill="black" stroke="black" points="886.04,-558 880.04,-560.7 883.04,-558 880.04,-558 880.04,-558 880.04,-558 883.04,-558 880.04,-555.3 886.04,-558 886.04,-558"/>
</g>
<!-- 2.1 &#45; Evaluate CVSS score -->
<g id="node21" class="node">
<title>2.1 &#45; Evaluate CVSS score</title>
<polygon fill="none" stroke="black" points="812.78,-504 702.78,-504 702.78,-468 812.78,-468 812.78,-504"/>
<text text-anchor="middle" x="757.78" y="-483.8" font-family="Times New Roman,serif" font-size="9.00">2.1 &#45; Evaluate CVSS score</text>
</g>
<!-- 2 &#45; Mitigation&#45;&gt;2.1 &#45; Evaluate CVSS score -->
<g id="edge23" class="edge">
<title>2 &#45; Mitigation&#45;&gt;2.1 &#45; Evaluate CVSS score</title>
<path fill="none" stroke="black" stroke-dasharray="5,2" d="M757.78,-539.95C757.78,-530.11 757.78,-520.26 757.78,-510.41"/>
<polygon fill="black" stroke="black" points="757.78,-504.28 760.48,-510.28 757.78,-507.28 757.78,-510.28 757.78,-510.28 757.78,-510.28 757.78,-507.28 755.08,-510.28 757.78,-504.28 757.78,-504.28"/>
</g>
<!-- 4 &#45; Disclosure -->
<g id="node5" class="node">
<title>4 &#45; Disclosure</title>
<text text-anchor="middle" x="1149.8" y="-554.2" font-family="Times New Roman,serif" font-size="16.00">4 &#45; Disclosure</text>
</g>
<!-- 3 &#45; Embargo&#45;&gt;4 &#45; Disclosure -->
<g id="edge4" class="edge">
<title>3 &#45; Embargo&#45;&gt;4 &#45; Disclosure</title>
<path fill="none" stroke="black" stroke-dasharray="5,2" d="M981.49,-558C1013.56,-558 1056.36,-558 1090.65,-558"/>
<polygon fill="black" stroke="black" points="1096.95,-558 1090.95,-560.7 1093.95,-558 1090.95,-558 1090.95,-558 1090.95,-558 1093.95,-558 1090.95,-555.3 1096.95,-558 1096.95,-558"/>
</g>
<!-- 3.1 &#45; Propose embargo period -->
<g id="node28" class="node">
<title>3.1 &#45; Propose embargo period</title>
<polygon fill="none" stroke="black" points="995.29,-504 872.29,-504 872.29,-468 995.29,-468 995.29,-504"/>
<text text-anchor="middle" x="933.79" y="-483.8" font-family="Times New Roman,serif" font-size="9.00">3.1 &#45; Propose embargo period</text>
</g>
<!-- 3 &#45; Embargo&#45;&gt;3.1 &#45; Propose embargo period -->
<g id="edge7" class="edge">
<title>3 &#45; Embargo&#45;&gt;3.1 &#45; Propose embargo period</title>
<path fill="none" stroke="black" stroke-dasharray="5,2" d="M933.79,-539.95C933.79,-530.11 933.79,-520.26 933.79,-510.41"/>
<polygon fill="black" stroke="black" points="933.79,-504.28 936.49,-510.28 933.79,-507.28 933.79,-510.28 933.79,-510.28 933.79,-510.28 933.79,-507.28 931.09,-510.28 933.79,-504.28 933.79,-504.28"/>
</g>
<!-- 5 &#45; Exit -->
<g id="node6" class="node">
<title>5 &#45; Exit</title>
<text text-anchor="middle" x="1381.31" y="-554.2" font-family="Times New Roman,serif" font-size="16.00">5 &#45; Exit</text>
</g>
<!-- 4 &#45; Disclosure&#45;&gt;5 &#45; Exit -->
<g id="edge5" class="edge">
<title>4 &#45; Disclosure&#45;&gt;5 &#45; Exit</title>
<path fill="none" stroke="black" stroke-dasharray="5,2" d="M1202.31,-558C1244.91,-558 1304.43,-558 1342.67,-558"/>
<polygon fill="black" stroke="black" points="1349.09,-558 1343.09,-560.7 1346.09,-558 1343.09,-558 1343.09,-558 1343.09,-558 1346.09,-558 1343.09,-555.3 1349.09,-558 1349.09,-558"/>
</g>
<!-- 4.1 &#45; Apply CVE number and attach it to BZ# -->
<g id="node34" class="node">
<title>4.1 &#45; Apply CVE number and attach it to BZ#</title>
<polygon fill="none" stroke="black" points="1241.8,-504 1057.8,-504 1057.8,-468 1241.8,-468 1241.8,-504"/>
<text text-anchor="middle" x="1149.8" y="-483.8" font-family="Times New Roman,serif" font-size="9.00">4.1 &#45; Apply CVE number and attach it to BZ#</text>
</g>
<!-- 4 &#45; Disclosure&#45;&gt;4.1 &#45; Apply CVE number and attach it to BZ# -->
<g id="edge36" class="edge">
<title>4 &#45; Disclosure&#45;&gt;4.1 &#45; Apply CVE number and attach it to BZ#</title>
<path fill="none" stroke="black" stroke-dasharray="5,2" d="M1149.8,-539.95C1149.8,-530.11 1149.8,-520.26 1149.8,-510.41"/>
<polygon fill="black" stroke="black" points="1149.8,-504.28 1152.5,-510.28 1149.8,-507.28 1149.8,-510.28 1149.8,-510.28 1149.8,-510.28 1149.8,-507.28 1147.1,-510.28 1149.8,-504.28 1149.8,-504.28"/>
</g>
<!-- 5.1 &#45; Close BZ# and associated mantis, if any -->
<g id="node40" class="node">
<title>5.1 &#45; Close BZ# and associated mantis, if any</title>
<polygon fill="none" stroke="black" points="1471.31,-504 1291.31,-504 1291.31,-468 1471.31,-468 1471.31,-504"/>
<text text-anchor="middle" x="1381.31" y="-483.8" font-family="Times New Roman,serif" font-size="9.00">5.1 &#45; Close BZ# and associated mantis, if any</text>
</g>
<!-- 5 &#45; Exit&#45;&gt;5.1 &#45; Close BZ# and associated mantis, if any -->
<g id="edge43" class="edge">
<title>5 &#45; Exit&#45;&gt;5.1 &#45; Close BZ# and associated mantis, if any</title>
<path fill="none" stroke="black" stroke-dasharray="5,2" d="M1374.77,-510.32C1375.42,-519.56 1377.6,-530.28 1381.31,-540"/>
<polygon fill="black" stroke="black" points="1374.56,-504.19 1377.46,-510.09 1374.66,-507.18 1374.76,-510.18 1374.76,-510.18 1374.76,-510.18 1374.66,-507.18 1372.06,-510.27 1374.56,-504.19 1374.56,-504.19"/>
</g>
<!-- 5.2 &#45; Transfer to normal BZ# -->
<g id="node41" class="node">
<title>5.2 &#45; Transfer to normal BZ#</title>
<polygon fill="none" stroke="black" points="1442.31,-450 1320.31,-450 1320.31,-414 1442.31,-414 1442.31,-450"/>
<text text-anchor="middle" x="1381.31" y="-429.8" font-family="Times New Roman,serif" font-size="9.00">5.2 &#45; Transfer to normal BZ#</text>
</g>
<!-- 5 &#45; Exit&#45;&gt;5.2 &#45; Transfer to normal BZ# -->
<!-- 5.3 &#45; File USRT mantis -->
<g id="node42" class="node">
<title>5.3 &#45; File USRT mantis</title>
<polygon fill="none" stroke="black" points="1431.81,-396 1330.81,-396 1330.81,-360 1431.81,-360 1431.81,-396"/>
<text text-anchor="middle" x="1381.31" y="-375.8" font-family="Times New Roman,serif" font-size="9.00">5.3 &#45; File USRT mantis</text>
</g>
<!-- 5 &#45; Exit&#45;&gt;5.3 &#45; File USRT mantis -->
<!-- 5.4 &#45; Report to USRT -->
<g id="node43" class="node">
<title>5.4 &#45; Report to USRT</title>
<polygon fill="none" stroke="black" points="1429.31,-342 1333.31,-342 1333.31,-306 1429.31,-306 1429.31,-342"/>
<text text-anchor="middle" x="1381.31" y="-321.8" font-family="Times New Roman,serif" font-size="9.00">5.4 &#45; Report to USRT</text>
</g>
<!-- 5 &#45; Exit&#45;&gt;5.4 &#45; Report to USRT -->
<!-- 0.2 &#45; Spec only? -->
<g id="node8" class="node">
<title>0.2 &#45; Spec only?</title>
<polygon fill="none" stroke="black" points="230.76,-432 169.28,-414 230.76,-396 292.23,-414 230.76,-432"/>
<text text-anchor="middle" x="230.76" y="-411.8" font-family="Times New Roman,serif" font-size="9.00">0.2 &#45; Spec only?</text>
</g>
<!-- 0.1 &#45; Code only?&#45;&gt;0.2 &#45; Spec only? -->
<g id="edge9" class="edge">
<title>0.1 &#45; Code only?&#45;&gt;0.2 &#45; Spec only?</title>
<path fill="none" stroke="red" stroke-dasharray="5,2" d="M230.76,-467.59C230.76,-458.67 230.76,-447.84 230.76,-438.25"/>
<polygon fill="red" stroke="red" points="230.76,-432.17 233.46,-438.17 230.76,-435.17 230.76,-438.17 230.76,-438.17 230.76,-438.17 230.76,-435.17 228.06,-438.17 230.76,-432.17 230.76,-432.17"/>
<text text-anchor="middle" x="222.76" y="-447.8" font-family="Times New Roman,serif" font-size="9.00">No</text>
</g>
<!-- 0.5 &#45; File security BZ# -->
<g id="node11" class="node">
<title>0.5 &#45; File security BZ#</title>
<polygon fill="none" stroke="black" points="280.26,-108 181.26,-108 181.26,-72 280.26,-72 280.26,-108"/>
<text text-anchor="middle" x="230.76" y="-87.8" font-family="Times New Roman,serif" font-size="9.00">0.5 &#45; File security BZ#</text>
</g>
<!-- 0.1 &#45; Code only?&#45;&gt;0.5 &#45; File security BZ# -->
<g id="edge15" class="edge">
<title>0.1 &#45; Code only?:w&#45;&gt;0.5 &#45; File security BZ#</title>
<path fill="none" stroke="blue" stroke-dasharray="5,2" d="M166.76,-486C88.28,-486 83.36,-199.63 127.88,-135 138.96,-118.92 157.12,-108.53 175.12,-101.85"/>
<polygon fill="blue" stroke="blue" points="181.21,-99.72 176.44,-104.25 178.38,-100.71 175.55,-101.7 175.55,-101.7 175.55,-101.7 178.38,-100.71 174.66,-99.15 181.21,-99.72 181.21,-99.72"/>
<text text-anchor="middle" x="102.88" y="-366.8" font-family="Times New Roman,serif" font-size="9.00">Yes</text>
</g>
<!-- 0.3 &#45; Future Spec arch change? -->
<g id="node9" class="node">
<title>0.3 &#45; Future Spec arch change?</title>
<polygon fill="none" stroke="black" points="230.76,-360 128,-342 230.76,-324 333.51,-342 230.76,-360"/>
<text text-anchor="middle" x="230.76" y="-339.8" font-family="Times New Roman,serif" font-size="9.00">0.3 &#45; Future Spec arch change?</text>
</g>
<!-- 0.2 &#45; Spec only?&#45;&gt;0.3 &#45; Future Spec arch change? -->
<g id="edge10" class="edge">
<title>0.2 &#45; Spec only?&#45;&gt;0.3 &#45; Future Spec arch change?</title>
<path fill="none" stroke="blue" stroke-dasharray="5,2" d="M230.76,-395.59C230.76,-386.67 230.76,-375.84 230.76,-366.25"/>
<polygon fill="blue" stroke="blue" points="230.76,-360.17 233.46,-366.17 230.76,-363.17 230.76,-366.17 230.76,-366.17 230.76,-366.17 230.76,-363.17 228.06,-366.17 230.76,-360.17 230.76,-360.17"/>
<text text-anchor="middle" x="222.76" y="-375.8" font-family="Times New Roman,serif" font-size="9.00">Yes</text>
</g>
<!-- 0.4 &#45; File USRT mantis -->
<g id="node10" class="node">
<title>0.4 &#45; File USRT mantis</title>
<polygon fill="none" stroke="black" points="281.26,-180 180.26,-180 180.26,-144 281.26,-144 281.26,-180"/>
<text text-anchor="middle" x="230.76" y="-159.8" font-family="Times New Roman,serif" font-size="9.00">0.4 &#45; File USRT mantis</text>
</g>
<!-- 0.2 &#45; Spec only?&#45;&gt;0.4 &#45; File USRT mantis -->
<g id="edge11" class="edge">
<title>0.2 &#45; Spec only?:w&#45;&gt;0.4 &#45; File USRT mantis</title>
<path fill="none" stroke="red" stroke-dasharray="5,2" d="M168.76,-414C141.74,-414 138.57,-393.81 127.88,-369 112.5,-333.3 90.35,-226.74 127.88,-189 140.11,-176.7 157.23,-169.79 173.99,-165.97"/>
<polygon fill="red" stroke="red" points="180.14,-164.7 174.81,-168.56 177.2,-165.31 174.26,-165.91 174.26,-165.91 174.26,-165.91 177.2,-165.31 173.71,-163.27 180.14,-164.7 180.14,-164.7"/>
<text text-anchor="middle" x="102.88" y="-230.8" font-family="Times New Roman,serif" font-size="9.00">No</text>
</g>
<!-- 5.4 -->
<g id="node13" class="node">
<title>5.4</title>
<ellipse fill="none" stroke="black" cx="230.76" cy="-270" rx="18" ry="18"/>
<text text-anchor="middle" x="230.76" y="-267.8" font-family="Times New Roman,serif" font-size="9.00">5.4</text>
</g>
<!-- 0.3 &#45; Future Spec arch change?&#45;&gt;5.4 -->
<g id="edge12" class="edge">
<title>0.3 &#45; Future Spec arch change?&#45;&gt;5.4</title>
<path fill="none" stroke="blue" stroke-dasharray="5,2" d="M230.76,-323.59C230.76,-314.67 230.76,-303.84 230.76,-294.25"/>
<polygon fill="blue" stroke="blue" points="230.76,-288.17 233.46,-294.17 230.76,-291.17 230.76,-294.17 230.76,-294.17 230.76,-294.17 230.76,-291.17 228.06,-294.17 230.76,-288.17 230.76,-288.17"/>
<text text-anchor="middle" x="222.76" y="-303.8" font-family="Times New Roman,serif" font-size="9.00">Yes</text>
</g>
<!-- 5.3 -->
<g id="node14" class="node">
<title>5.3</title>
<ellipse fill="none" stroke="black" cx="230.76" cy="-216" rx="18" ry="18"/>
<text text-anchor="middle" x="230.76" y="-213.8" font-family="Times New Roman,serif" font-size="9.00">5.3</text>
</g>
<!-- 0.3 &#45; Future Spec arch change?&#45;&gt;5.3 -->
<g id="edge13" class="edge">
<title>0.3 &#45; Future Spec arch change?:w&#45;&gt;5.3</title>
<path fill="none" stroke="red" stroke-dasharray="5,2" d="M127.88,-342C83.88,-342 95.92,-273.24 127.88,-243 149.09,-222.93 183.35,-217.35 206.45,-216.02"/>
<polygon fill="red" stroke="red" points="212.64,-215.75 206.77,-218.71 209.65,-215.88 206.65,-216.01 206.65,-216.01 206.65,-216.01 209.65,-215.88 206.53,-213.32 212.64,-215.75 212.64,-215.75"/>
<text text-anchor="middle" x="102.88" y="-276.8" font-family="Times New Roman,serif" font-size="9.00">No</text>
</g>
<!-- 0.4 &#45; File USRT mantis&#45;&gt;0.5 &#45; File security BZ# -->
<g id="edge14" class="edge">
<title>0.4 &#45; File USRT mantis&#45;&gt;0.5 &#45; File security BZ#</title>
<path fill="none" stroke="black" stroke-dasharray="5,2" d="M230.76,-143.95C230.76,-134.11 230.76,-124.26 230.76,-114.41"/>
<polygon fill="black" stroke="black" points="230.76,-108.28 233.46,-114.28 230.76,-111.28 230.76,-114.28 230.76,-114.28 230.76,-114.28 230.76,-111.28 228.06,-114.28 230.76,-108.28 230.76,-108.28"/>
</g>
<!-- 1 -->
<g id="node12" class="node">
<title>1</title>
<ellipse fill="none" stroke="black" cx="230.76" cy="-18" rx="18" ry="18"/>
<text text-anchor="middle" x="230.76" y="-15.8" font-family="Times New Roman,serif" font-size="9.00">1</text>
</g>
<!-- 0.5 &#45; File security BZ#&#45;&gt;1 -->
<g id="edge16" class="edge">
<title>0.5 &#45; File security BZ#&#45;&gt;1</title>
<path fill="none" stroke="black" stroke-dasharray="5,2" d="M230.76,-71.86C230.76,-61.96 230.76,-52.06 230.76,-42.16"/>
<polygon fill="black" stroke="black" points="230.76,-36 233.46,-42 230.76,-39 230.76,-42 230.76,-42 230.76,-42 230.76,-39 228.06,-42 230.76,-36 230.76,-36"/>
</g>
<!-- 1.2 &#45; Security issue? -->
<g id="node16" class="node">
<title>1.2 &#45; Security issue?</title>
<polygon fill="none" stroke="black" points="513.46,-432 440.62,-414 513.46,-396 586.3,-414 513.46,-432"/>
<text text-anchor="middle" x="513.46" y="-411.8" font-family="Times New Roman,serif" font-size="9.00">1.2 &#45; Security issue?</text>
</g>
<!-- 1.1 &#45; Impact stable tag or UDK branch?&#45;&gt;1.2 &#45; Security issue? -->
<g id="edge17" class="edge">
<title>1.1 &#45; Impact stable tag or UDK branch?&#45;&gt;1.2 &#45; Security issue?</title>
<path fill="none" stroke="blue" stroke-dasharray="5,2" d="M513.46,-467.59C513.46,-458.67 513.46,-447.84 513.46,-438.25"/>
<polygon fill="blue" stroke="blue" points="513.46,-432.17 516.16,-438.17 513.46,-435.17 513.46,-438.17 513.46,-438.17 513.46,-438.17 513.46,-435.17 510.76,-438.17 513.46,-432.17 513.46,-432.17"/>
<text text-anchor="middle" x="505.46" y="-447.8" font-family="Times New Roman,serif" font-size="9.00">Yes</text>
</g>
<!-- 5.2 -->
<g id="node20" class="node">
<title>5.2</title>
<ellipse fill="none" stroke="black" cx="513.46" cy="-216" rx="18" ry="18"/>
<text text-anchor="middle" x="513.46" y="-213.8" font-family="Times New Roman,serif" font-size="9.00">5.2</text>
</g>
<!-- 1.1 &#45; Impact stable tag or UDK branch?&#45;&gt;5.2 -->
<g id="edge22" class="edge">
<title>1.1 &#45; Impact stable tag or UDK branch?:w&#45;&gt;5.2</title>
<path fill="none" stroke="red" stroke-dasharray="5,2" d="M383.64,-486C356.64,-486 366.18,-263.6 383.64,-243 409.34,-212.67 459.45,-210.97 489.34,-213.08"/>
<polygon fill="red" stroke="red" points="495.39,-213.58 489.19,-215.78 492.4,-213.33 489.41,-213.09 489.41,-213.09 489.41,-213.09 492.4,-213.33 489.64,-210.4 495.39,-213.58 495.39,-213.58"/>
<text text-anchor="middle" x="358.64" y="-394.8" font-family="Times New Roman,serif" font-size="9.00">No</text>
</g>
<!-- 1.3 &#45; Functional issue? -->
<g id="node17" class="node">
<title>1.3 &#45; Functional issue?</title>
<polygon fill="none" stroke="black" points="513.46,-360 433.43,-342 513.46,-324 593.49,-342 513.46,-360"/>
<text text-anchor="middle" x="513.46" y="-339.8" font-family="Times New Roman,serif" font-size="9.00">1.3 &#45; Functional issue?</text>
</g>
<!-- 1.2 &#45; Security issue?&#45;&gt;1.3 &#45; Functional issue? -->
<g id="edge18" class="edge">
<title>1.2 &#45; Security issue?&#45;&gt;1.3 &#45; Functional issue?</title>
<path fill="none" stroke="red" stroke-dasharray="5,2" d="M513.46,-395.59C513.46,-386.67 513.46,-375.84 513.46,-366.25"/>
<polygon fill="red" stroke="red" points="513.46,-360.17 516.16,-366.17 513.46,-363.17 513.46,-366.17 513.46,-366.17 513.46,-366.17 513.46,-363.17 510.76,-366.17 513.46,-360.17 513.46,-360.17"/>
<text text-anchor="middle" x="505.46" y="-375.8" font-family="Times New Roman,serif" font-size="9.00">No</text>
</g>
<!-- 2 -->
<g id="node18" class="node">
<title>2</title>
<ellipse fill="none" stroke="black" cx="513.46" cy="-162" rx="18" ry="18"/>
<text text-anchor="middle" x="513.46" y="-159.8" font-family="Times New Roman,serif" font-size="9.00">2</text>
</g>
<!-- 1.2 &#45; Security issue?&#45;&gt;2 -->
<g id="edge19" class="edge">
<title>1.2 &#45; Security issue?:w&#45;&gt;2</title>
<path fill="none" stroke="blue" stroke-dasharray="5,2" d="M439.46,-414C407.59,-414 400.58,-395.99 383.64,-369 362.36,-335.13 357.63,-219.39 383.64,-189 409.49,-158.79 459.55,-157.05 489.39,-159.12"/>
<polygon fill="blue" stroke="blue" points="495.43,-159.61 489.23,-161.82 492.44,-159.37 489.45,-159.13 489.45,-159.13 489.45,-159.13 492.44,-159.37 489.67,-156.44 495.43,-159.61 495.43,-159.61"/>
<text text-anchor="middle" x="358.64" y="-331.8" font-family="Times New Roman,serif" font-size="9.00">Yes</text>
</g>
<!-- 5.1 -->
<g id="node19" class="node">
<title>5.1</title>
<ellipse fill="none" stroke="black" cx="513.46" cy="-270" rx="18" ry="18"/>
<text text-anchor="middle" x="513.46" y="-267.8" font-family="Times New Roman,serif" font-size="9.00">5.1</text>
</g>
<!-- 1.3 &#45; Functional issue?&#45;&gt;5.1 -->
<g id="edge20" class="edge">
<title>1.3 &#45; Functional issue?&#45;&gt;5.1</title>
<path fill="none" stroke="red" stroke-dasharray="5,2" d="M513.46,-323.59C513.46,-314.67 513.46,-303.84 513.46,-294.25"/>
<polygon fill="red" stroke="red" points="513.46,-288.17 516.16,-294.17 513.46,-291.17 513.46,-294.17 513.46,-294.17 513.46,-294.17 513.46,-291.17 510.76,-294.17 513.46,-288.17 513.46,-288.17"/>
<text text-anchor="middle" x="505.46" y="-303.8" font-family="Times New Roman,serif" font-size="9.00">No</text>
</g>
<!-- 1.3 &#45; Functional issue?&#45;&gt;5.2 -->
<g id="edge21" class="edge">
<title>1.3 &#45; Functional issue?:w&#45;&gt;5.2</title>
<path fill="none" stroke="blue" stroke-dasharray="5,2" d="M432.46,-342C383.4,-342 348.65,-277.39 383.64,-243 411.57,-215.54 459.71,-212.66 488.87,-213.81"/>
<polygon fill="blue" stroke="blue" points="495.14,-214.13 489.01,-216.52 492.14,-213.98 489.15,-213.82 489.15,-213.82 489.15,-213.82 492.14,-213.98 489.28,-211.13 495.14,-214.13 495.14,-214.13"/>
<text text-anchor="middle" x="358.64" y="-276.8" font-family="Times New Roman,serif" font-size="9.00">Yes</text>
</g>
<!-- 2.2 &#45; Discuss solution -->
<g id="node22" class="node">
<title>2.2 &#45; Discuss solution</title>
<polygon fill="none" stroke="black" points="805.28,-432 710.28,-432 710.28,-396 805.28,-396 805.28,-432"/>
<text text-anchor="middle" x="757.78" y="-411.8" font-family="Times New Roman,serif" font-size="9.00">2.2 &#45; Discuss solution</text>
</g>
<!-- 2.1 &#45; Evaluate CVSS score&#45;&gt;2.2 &#45; Discuss solution -->
<g id="edge24" class="edge">
<title>2.1 &#45; Evaluate CVSS score&#45;&gt;2.2 &#45; Discuss solution</title>
<path fill="none" stroke="black" stroke-dasharray="5,2" d="M757.78,-467.95C757.78,-458.11 757.78,-448.26 757.78,-438.41"/>
<polygon fill="black" stroke="black" points="757.78,-432.28 760.48,-438.28 757.78,-435.28 757.78,-438.28 757.78,-438.28 757.78,-438.28 757.78,-435.28 755.08,-438.28 757.78,-432.28 757.78,-432.28"/>
</g>
<!-- 2.3 &#45; Attach patch to BZ# -->
<g id="node23" class="node">
<title>2.3 &#45; Attach patch to BZ#</title>
<polygon fill="none" stroke="black" points="813.28,-360 702.28,-360 702.28,-324 813.28,-324 813.28,-360"/>
<text text-anchor="middle" x="757.78" y="-339.8" font-family="Times New Roman,serif" font-size="9.00">2.3 &#45; Attach patch to BZ#</text>
</g>
<!-- 2.2 &#45; Discuss solution&#45;&gt;2.3 &#45; Attach patch to BZ# -->
<g id="edge25" class="edge">
<title>2.2 &#45; Discuss solution&#45;&gt;2.3 &#45; Attach patch to BZ#</title>
<path fill="none" stroke="black" stroke-dasharray="5,2" d="M757.78,-395.95C757.78,-386.11 757.78,-376.26 757.78,-366.41"/>
<polygon fill="black" stroke="black" points="757.78,-360.28 760.48,-366.28 757.78,-363.28 757.78,-366.28 757.78,-366.28 757.78,-366.28 757.78,-363.28 755.08,-366.28 757.78,-360.28 757.78,-360.28"/>
</g>
<!-- 2.4 &#45; Review the patch -->
<g id="node24" class="node">
<title>2.4 &#45; Review the patch</title>
<polygon fill="none" stroke="black" points="806.78,-288 708.78,-288 708.78,-252 806.78,-252 806.78,-288"/>
<text text-anchor="middle" x="757.78" y="-267.8" font-family="Times New Roman,serif" font-size="9.00">2.4 &#45; Review the patch</text>
</g>
<!-- 2.3 &#45; Attach patch to BZ#&#45;&gt;2.4 &#45; Review the patch -->
<g id="edge26" class="edge">
<title>2.3 &#45; Attach patch to BZ#&#45;&gt;2.4 &#45; Review the patch</title>
<path fill="none" stroke="black" stroke-dasharray="5,2" d="M757.78,-323.95C757.78,-314.11 757.78,-304.26 757.78,-294.41"/>
<polygon fill="black" stroke="black" points="757.78,-288.28 760.48,-294.28 757.78,-291.28 757.78,-294.28 757.78,-294.28 757.78,-294.28 757.78,-291.28 755.08,-294.28 757.78,-288.28 757.78,-288.28"/>
</g>
<!-- 2.5 &#45; Patch good? -->
<g id="node25" class="node">
<title>2.5 &#45; Patch good?</title>
<polygon fill="none" stroke="black" points="757.78,-216 693.28,-198 757.78,-180 822.29,-198 757.78,-216"/>
<text text-anchor="middle" x="757.78" y="-195.8" font-family="Times New Roman,serif" font-size="9.00">2.5 &#45; Patch good?</text>
</g>
<!-- 2.4 &#45; Review the patch&#45;&gt;2.5 &#45; Patch good? -->
<g id="edge27" class="edge">
<title>2.4 &#45; Review the patch&#45;&gt;2.5 &#45; Patch good?</title>
<path fill="none" stroke="black" stroke-dasharray="5,2" d="M757.78,-251.95C757.78,-242.11 757.78,-232.26 757.78,-222.41"/>
<polygon fill="black" stroke="black" points="757.78,-216.28 760.48,-222.28 757.78,-219.28 757.78,-222.28 757.78,-222.28 757.78,-222.28 757.78,-219.28 755.08,-222.28 757.78,-216.28 757.78,-216.28"/>
</g>
<!-- 2.6 &#45; Update patch -->
<g id="node26" class="node">
<title>2.6 &#45; Update patch</title>
<polygon fill="none" stroke="black" points="800.28,-144 715.28,-144 715.28,-108 800.28,-108 800.28,-144"/>
<text text-anchor="middle" x="757.78" y="-123.8" font-family="Times New Roman,serif" font-size="9.00">2.6 &#45; Update patch</text>
</g>
<!-- 2.5 &#45; Patch good?&#45;&gt;2.6 &#45; Update patch -->
<g id="edge28" class="edge">
<title>2.5 &#45; Patch good?&#45;&gt;2.6 &#45; Update patch</title>
<path fill="none" stroke="red" stroke-dasharray="5,2" d="M757.78,-179.59C757.78,-170.67 757.78,-159.84 757.78,-150.25"/>
<polygon fill="red" stroke="red" points="757.78,-144.17 760.48,-150.17 757.78,-147.17 757.78,-150.17 757.78,-150.17 757.78,-150.17 757.78,-147.17 755.08,-150.17 757.78,-144.17 757.78,-144.17"/>
<text text-anchor="middle" x="749.78" y="-159.8" font-family="Times New Roman,serif" font-size="9.00">No</text>
</g>
<!-- 3 -->
<g id="node27" class="node">
<title>3</title>
<ellipse fill="none" stroke="black" cx="757.78" cy="-72" rx="18" ry="18"/>
<text text-anchor="middle" x="757.78" y="-69.8" font-family="Times New Roman,serif" font-size="9.00">3</text>
</g>
<!-- 2.5 &#45; Patch good?&#45;&gt;3 -->
<g id="edge30" class="edge">
<title>2.5 &#45; Patch good?:w&#45;&gt;3</title>
<path fill="none" stroke="blue" stroke-dasharray="5,2" d="M693.28,-198C674.63,-198 668.04,-156.89 675.28,-130 679.42,-114.62 681.31,-109.51 693.28,-99 704.99,-88.72 721.17,-81.96 734.4,-77.78"/>
<polygon fill="blue" stroke="blue" points="740.24,-76.03 735.26,-80.34 737.36,-76.89 734.49,-77.75 734.49,-77.75 734.49,-77.75 737.36,-76.89 733.72,-75.16 740.24,-76.03 740.24,-76.03"/>
<text text-anchor="middle" x="668.28" y="-132.8" font-family="Times New Roman,serif" font-size="9.00">Yes</text>
</g>
<!-- 2.6 &#45; Update patch&#45;&gt;2.3 &#45; Attach patch to BZ# -->
<g id="edge29" class="edge">
<title>2.6 &#45; Update patch:w&#45;&gt;2.3 &#45; Attach patch to BZ#:w</title>
<path fill="none" stroke="black" stroke-dasharray="5,2" d="M713.78,-126C682.4,-126 679.05,-150.52 668.28,-180 643.83,-246.96 628.28,-336.57 694.56,-341.76"/>
<polygon fill="black" stroke="black" points="700.78,-342 694.69,-344.47 697.79,-341.89 694.79,-341.77 694.79,-341.77 694.79,-341.77 697.79,-341.89 694.89,-339.07 700.78,-342 700.78,-342"/>
</g>
<!-- 3.2 &#45; Anounce embargo start -->
<g id="node29" class="node">
<title>3.2 &#45; Anounce embargo start</title>
<polygon fill="none" stroke="black" points="993.29,-432 874.29,-432 874.29,-396 993.29,-396 993.29,-432"/>
<text text-anchor="middle" x="933.79" y="-411.8" font-family="Times New Roman,serif" font-size="9.00">3.2 &#45; Anounce embargo start</text>
</g>
<!-- 3.1 &#45; Propose embargo period&#45;&gt;3.2 &#45; Anounce embargo start -->
<g id="edge31" class="edge">
<title>3.1 &#45; Propose embargo period&#45;&gt;3.2 &#45; Anounce embargo start</title>
<path fill="none" stroke="black" stroke-dasharray="5,2" d="M933.79,-467.95C933.79,-458.11 933.79,-448.26 933.79,-438.41"/>
<polygon fill="black" stroke="black" points="933.79,-432.28 936.49,-438.28 933.79,-435.28 933.79,-438.28 933.79,-438.28 933.79,-438.28 933.79,-435.28 931.09,-438.28 933.79,-432.28 933.79,-432.28"/>
</g>
<!-- 3.3 &#45; Send courtesy update to USRT -->
<g id="node30" class="node">
<title>3.3 &#45; Send courtesy update to USRT</title>
<polygon fill="none" stroke="black" points="1008.29,-360 859.29,-360 859.29,-324 1008.29,-324 1008.29,-360"/>
<text text-anchor="middle" x="933.79" y="-339.8" font-family="Times New Roman,serif" font-size="9.00">3.3 &#45; Send courtesy update to USRT</text>
</g>
<!-- 3.2 &#45; Anounce embargo start&#45;&gt;3.3 &#45; Send courtesy update to USRT -->
<g id="edge32" class="edge">
<title>3.2 &#45; Anounce embargo start&#45;&gt;3.3 &#45; Send courtesy update to USRT</title>
<path fill="none" stroke="black" stroke-dasharray="5,2" d="M933.79,-395.95C933.79,-386.11 933.79,-376.26 933.79,-366.41"/>
<polygon fill="black" stroke="black" points="933.79,-360.28 936.49,-366.28 933.79,-363.28 933.79,-366.28 933.79,-366.28 933.79,-366.28 933.79,-363.28 931.09,-366.28 933.79,-360.28 933.79,-360.28"/>
</g>
<!-- 3.4 &#45; &lt;Embargo Period&gt; -->
<g id="node31" class="node">
<title>3.4 &#45; &lt;Embargo Period&gt;</title>
<polygon fill="none" stroke="black" points="985.29,-288 882.29,-288 882.29,-252 985.29,-252 985.29,-288"/>
<text text-anchor="middle" x="933.79" y="-267.8" font-family="Times New Roman,serif" font-size="9.00">3.4 &#45; &lt;Embargo Period&gt;</text>
</g>
<!-- 3.3 &#45; Send courtesy update to USRT&#45;&gt;3.4 &#45; &lt;Embargo Period&gt; -->
<g id="edge33" class="edge">
<title>3.3 &#45; Send courtesy update to USRT&#45;&gt;3.4 &#45; &lt;Embargo Period&gt;</title>
<path fill="none" stroke="black" stroke-dasharray="5,2" d="M933.79,-323.95C933.79,-314.11 933.79,-304.26 933.79,-294.41"/>
<polygon fill="black" stroke="black" points="933.79,-288.28 936.49,-294.28 933.79,-291.28 933.79,-294.28 933.79,-294.28 933.79,-294.28 933.79,-291.28 931.09,-294.28 933.79,-288.28 933.79,-288.28"/>
</g>
<!-- 3.5 &#45; Anounce embargo end -->
<g id="node32" class="node">
<title>3.5 &#45; Anounce embargo end</title>
<polygon fill="none" stroke="black" points="991.29,-216 876.29,-216 876.29,-180 991.29,-180 991.29,-216"/>
<text text-anchor="middle" x="933.79" y="-195.8" font-family="Times New Roman,serif" font-size="9.00">3.5 &#45; Anounce embargo end</text>
</g>
<!-- 3.4 &#45; &lt;Embargo Period&gt;&#45;&gt;3.5 &#45; Anounce embargo end -->
<g id="edge34" class="edge">
<title>3.4 &#45; &lt;Embargo Period&gt;&#45;&gt;3.5 &#45; Anounce embargo end</title>
<path fill="none" stroke="black" stroke-dasharray="5,2" d="M933.79,-251.95C933.79,-242.11 933.79,-232.26 933.79,-222.41"/>
<polygon fill="black" stroke="black" points="933.79,-216.28 936.49,-222.28 933.79,-219.28 933.79,-222.28 933.79,-222.28 933.79,-222.28 933.79,-219.28 931.09,-222.28 933.79,-216.28 933.79,-216.28"/>
</g>
<!-- 4 -->
<g id="node33" class="node">
<title>4</title>
<ellipse fill="none" stroke="black" cx="933.79" cy="-126" rx="18" ry="18"/>
<text text-anchor="middle" x="933.79" y="-123.8" font-family="Times New Roman,serif" font-size="9.00">4</text>
</g>
<!-- 3.5 &#45; Anounce embargo end&#45;&gt;4 -->
<g id="edge35" class="edge">
<title>3.5 &#45; Anounce embargo end&#45;&gt;4</title>
<path fill="none" stroke="black" stroke-dasharray="5,2" d="M933.79,-179.86C933.79,-169.96 933.79,-160.06 933.79,-150.16"/>
<polygon fill="black" stroke="black" points="933.79,-144 936.49,-150 933.79,-147 933.79,-150 933.79,-150 933.79,-150 933.79,-147 931.09,-150 933.79,-144 933.79,-144"/>
</g>
<!-- 4.2 &#45; UEFI Spec is in embargo? -->
<g id="node35" class="node">
<title>4.2 &#45; UEFI Spec is in embargo?</title>
<polygon fill="none" stroke="black" points="1149.8,-404 1045.28,-386 1149.8,-368 1254.32,-386 1149.8,-404"/>
<text text-anchor="middle" x="1149.8" y="-383.8" font-family="Times New Roman,serif" font-size="9.00">4.2 &#45; UEFI Spec is in embargo?</text>
</g>
<!-- 4.1 &#45; Apply CVE number and attach it to BZ#&#45;&gt;4.2 &#45; UEFI Spec is in embargo? -->
<g id="edge37" class="edge">
<title>4.1 &#45; Apply CVE number and attach it to BZ#&#45;&gt;4.2 &#45; UEFI Spec is in embargo?</title>
<path fill="none" stroke="black" stroke-dasharray="5,2" d="M1149.8,-467.82C1149.8,-448.82 1149.8,-429.81 1149.8,-410.8"/>
<polygon fill="black" stroke="black" points="1149.8,-404.36 1152.5,-410.36 1149.8,-407.36 1149.8,-410.36 1149.8,-410.36 1149.8,-410.36 1149.8,-407.36 1147.1,-410.36 1149.8,-404.36 1149.8,-404.36"/>
</g>
<!-- 4.2 &#45; UEFI Spec is in embargo?&#45;&gt;4.2 &#45; UEFI Spec is in embargo? -->
<g id="edge38" class="edge">
<title>4.2 &#45; UEFI Spec is in embargo?:w&#45;&gt;4.2 &#45; UEFI Spec is in embargo?:n</title>
<path fill="none" stroke="blue" stroke-dasharray="5,2" d="M1044.8,-386C1014.3,-398 1014.3,-422 1097.3,-422 1174.46,-422 1179.89,-411.63 1155.76,-405.35"/>
<polygon fill="blue" stroke="blue" points="1149.8,-404 1156.25,-402.69 1152.73,-404.66 1155.65,-405.32 1155.65,-405.32 1155.65,-405.32 1152.73,-404.66 1155.06,-407.96 1149.8,-404 1149.8,-404"/>
<text text-anchor="middle" x="1149.8" y="-424.8" font-family="Times New Roman,serif" font-size="9.00">Yes</text>
</g>
<!-- 4.3 &#45; Open BZ# to public -->
<g id="node36" class="node">
<title>4.3 &#45; Open BZ# to public</title>
<polygon fill="none" stroke="black" points="1204.3,-332 1095.3,-332 1095.3,-296 1204.3,-296 1204.3,-332"/>
<text text-anchor="middle" x="1149.8" y="-311.8" font-family="Times New Roman,serif" font-size="9.00">4.3 &#45; Open BZ# to public</text>
</g>
<!-- 4.2 &#45; UEFI Spec is in embargo?&#45;&gt;4.3 &#45; Open BZ# to public -->
<g id="edge39" class="edge">
<title>4.2 &#45; UEFI Spec is in embargo?&#45;&gt;4.3 &#45; Open BZ# to public</title>
<path fill="none" stroke="red" stroke-dasharray="5,2" d="M1149.8,-367.59C1149.8,-358.67 1149.8,-347.84 1149.8,-338.25"/>
<polygon fill="red" stroke="red" points="1149.8,-332.17 1152.5,-338.17 1149.8,-335.17 1149.8,-338.17 1149.8,-338.17 1149.8,-338.17 1149.8,-335.17 1147.1,-338.17 1149.8,-332.17 1149.8,-332.17"/>
<text text-anchor="middle" x="1141.8" y="-347.8" font-family="Times New Roman,serif" font-size="9.00">No</text>
</g>
<!-- 4.4 &#45; Open source the patch -->
<g id="node37" class="node">
<title>4.4 &#45; Open source the patch</title>
<polygon fill="none" stroke="black" points="1208.3,-260 1091.3,-260 1091.3,-224 1208.3,-224 1208.3,-260"/>
<text text-anchor="middle" x="1149.8" y="-239.8" font-family="Times New Roman,serif" font-size="9.00">4.4 &#45; Open source the patch</text>
</g>
<!-- 4.3 &#45; Open BZ# to public&#45;&gt;4.4 &#45; Open source the patch -->
<g id="edge40" class="edge">
<title>4.3 &#45; Open BZ# to public&#45;&gt;4.4 &#45; Open source the patch</title>
<path fill="none" stroke="black" stroke-dasharray="5,2" d="M1149.8,-295.95C1149.8,-286.11 1149.8,-276.26 1149.8,-266.41"/>
<polygon fill="black" stroke="black" points="1149.8,-260.28 1152.5,-266.28 1149.8,-263.28 1149.8,-266.28 1149.8,-266.28 1149.8,-266.28 1149.8,-263.28 1147.1,-266.28 1149.8,-260.28 1149.8,-260.28"/>
</g>
<!-- 4.5 &#45; Update Tiano Security Advisory -->
<g id="node38" class="node">
<title>4.5 &#45; Update Tiano Security Advisory</title>
<polygon fill="none" stroke="black" points="1227.3,-188 1072.3,-188 1072.3,-152 1227.3,-152 1227.3,-188"/>
<text text-anchor="middle" x="1149.8" y="-167.8" font-family="Times New Roman,serif" font-size="9.00">4.5 &#45; Update Tiano Security Advisory</text>
</g>
<!-- 4.4 &#45; Open source the patch&#45;&gt;4.5 &#45; Update Tiano Security Advisory -->
<g id="edge41" class="edge">
<title>4.4 &#45; Open source the patch&#45;&gt;4.5 &#45; Update Tiano Security Advisory</title>
<path fill="none" stroke="black" stroke-dasharray="5,2" d="M1149.8,-223.95C1149.8,-214.11 1149.8,-204.26 1149.8,-194.41"/>
<polygon fill="black" stroke="black" points="1149.8,-188.28 1152.5,-194.28 1149.8,-191.28 1149.8,-194.28 1149.8,-194.28 1149.8,-194.28 1149.8,-191.28 1147.1,-194.28 1149.8,-188.28 1149.8,-188.28"/>
</g>
<!-- 5 -->
<g id="node39" class="node">
<title>5</title>
<ellipse fill="none" stroke="black" cx="1149.8" cy="-98" rx="18" ry="18"/>
<text text-anchor="middle" x="1149.8" y="-95.8" font-family="Times New Roman,serif" font-size="9.00">5</text>
</g>
<!-- 4.5 &#45; Update Tiano Security Advisory&#45;&gt;5 -->
<g id="edge42" class="edge">
<title>4.5 &#45; Update Tiano Security Advisory&#45;&gt;5</title>
<path fill="none" stroke="black" stroke-dasharray="5,2" d="M1149.8,-151.86C1149.8,-141.96 1149.8,-132.06 1149.8,-122.16"/>
<polygon fill="black" stroke="black" points="1149.8,-116 1152.5,-122 1149.8,-119 1149.8,-122 1149.8,-122 1149.8,-122 1149.8,-119 1147.1,-122 1149.8,-116 1149.8,-116"/>
</g>
</g>
</svg>
