<?xml version="1.0" encoding="UTF-8" standalone="no"?>
<!DOCTYPE svg PUBLIC "-//W3C//DTD SVG 1.1//EN"
 "http://www.w3.org/Graphics/SVG/1.1/DTD/svg11.dtd">
<!-- Generated by graphviz version 2.41.20190326.1719 (20190326.1719)
 -->
<!-- Title: security_bz_flowchart Pages: 1 -->
<svg width="342pt" height="584pt"
 viewBox="0.00 0.00 341.64 584.00" xmlns="http://www.w3.org/2000/svg" xmlns:xlink="http://www.w3.org/1999/xlink">
<g id="graph0" class="graph" transform="scale(1 1) rotate(0) translate(4 580)">
<title>security_bz_flowchart</title>
<polygon fill="white" stroke="transparent" points="-4,4 -4,-580 337.64,-580 337.64,4 -4,4"/>
<!-- 0 &#45; New Security Bug -->
<g id="node1" class="node">
<title>0 &#45; New Security Bug</title>
<g id="a_node1"><a xlink:href="flowchart.dot.svg" xlink:title="0 &#45; New Security Bug">
<polygon fill="none" stroke="black" points="278.26,-576 183.26,-576 183.26,-540 278.26,-540 278.26,-576"/>
<text text-anchor="middle" x="230.76" y="-555.8" font-family="Times New Roman,serif" font-size="9.00">0 &#45; New Security Bug</text>
</a>
</g>
</g>
<!-- 0.1 &#45; Code only? -->
<g id="node2" class="node">
<title>0.1 &#45; Code only?</title>
<polygon fill="none" stroke="black" points="230.76,-504 168.02,-486 230.76,-468 293.5,-486 230.76,-504"/>
<text text-anchor="middle" x="230.76" y="-483.8" font-family="Times New Roman,serif" font-size="9.00">0.1 &#45; Code only?</text>
</g>
<!-- 0 &#45; New Security Bug&#45;&gt;0.1 &#45; Code only? -->
<g id="edge1" class="edge">
<title>0 &#45; New Security Bug&#45;&gt;0.1 &#45; Code only?</title>
<path fill="none" stroke="black" stroke-dasharray="5,2" d="M230.76,-539.95C230.76,-530.11 230.76,-520.26 230.76,-510.41"/>
<polygon fill="black" stroke="black" points="230.76,-504.28 233.46,-510.28 230.76,-507.28 230.76,-510.28 230.76,-510.28 230.76,-510.28 230.76,-507.28 228.06,-510.28 230.76,-504.28 230.76,-504.28"/>
</g>
<!-- 0.2 &#45; Spec only? -->
<g id="node3" class="node">
<title>0.2 &#45; Spec only?</title>
<polygon fill="none" stroke="black" points="230.76,-432 169.28,-414 230.76,-396 292.23,-414 230.76,-432"/>
<text text-anchor="middle" x="230.76" y="-411.8" font-family="Times New Roman,serif" font-size="9.00">0.2 &#45; Spec only?</text>
</g>
<!-- 0.1 &#45; Code only?&#45;&gt;0.2 &#45; Spec only? -->
<g id="edge2" class="edge">
<title>0.1 &#45; Code only?&#45;&gt;0.2 &#45; Spec only?</title>
<path fill="none" stroke="red" stroke-dasharray="5,2" d="M230.76,-467.59C230.76,-458.67 230.76,-447.84 230.76,-438.25"/>
<polygon fill="red" stroke="red" points="230.76,-432.17 233.46,-438.17 230.76,-435.17 230.76,-438.17 230.76,-438.17 230.76,-438.17 230.76,-435.17 228.06,-438.17 230.76,-432.17 230.76,-432.17"/>
<text text-anchor="middle" x="222.76" y="-447.8" font-family="Times New Roman,serif" font-size="9.00">No</text>
</g>
<!-- 0.5 &#45; File security BZ# -->
<g id="node6" class="node">
<title>0.5 &#45; File security BZ#</title>
<polygon fill="none" stroke="black" points="280.26,-108 181.26,-108 181.26,-72 280.26,-72 280.26,-108"/>
<text text-anchor="middle" x="230.76" y="-87.8" font-family="Times New Roman,serif" font-size="9.00">0.5 &#45; File security BZ#</text>
</g>
<!-- 0.1 &#45; Code only?&#45;&gt;0.5 &#45; File security BZ# -->
<g id="edge8" class="edge">
<title>0.1 &#45; Code only?:w&#45;&gt;0.5 &#45; File security BZ#</title>
<path fill="none" stroke="blue" stroke-dasharray="5,2" d="M166.76,-486C88.28,-486 83.36,-199.63 127.88,-135 138.96,-118.92 157.12,-108.53 175.12,-101.85"/>
<polygon fill="blue" stroke="blue" points="181.21,-99.72 176.44,-104.25 178.38,-100.71 175.55,-101.7 175.55,-101.7 175.55,-101.7 178.38,-100.71 174.66,-99.15 181.21,-99.72 181.21,-99.72"/>
<text text-anchor="middle" x="102.88" y="-366.8" font-family="Times New Roman,serif" font-size="9.00">Yes</text>
</g>
<!-- 0.3 &#45; Future Spec arch change? -->
<g id="node4" class="node">
<title>0.3 &#45; Future Spec arch change?</title>
<polygon fill="none" stroke="black" points="230.76,-360 128,-342 230.76,-324 333.51,-342 230.76,-360"/>
<text text-anchor="middle" x="230.76" y="-339.8" font-family="Times New Roman,serif" font-size="9.00">0.3 &#45; Future Spec arch change?</text>
</g>
<!-- 0.2 &#45; Spec only?&#45;&gt;0.3 &#45; Future Spec arch change? -->
<g id="edge3" class="edge">
<title>0.2 &#45; Spec only?&#45;&gt;0.3 &#45; Future Spec arch change?</title>
<path fill="none" stroke="blue" stroke-dasharray="5,2" d="M230.76,-395.59C230.76,-386.67 230.76,-375.84 230.76,-366.25"/>
<polygon fill="blue" stroke="blue" points="230.76,-360.17 233.46,-366.17 230.76,-363.17 230.76,-366.17 230.76,-366.17 230.76,-366.17 230.76,-363.17 228.06,-366.17 230.76,-360.17 230.76,-360.17"/>
<text text-anchor="middle" x="222.76" y="-375.8" font-family="Times New Roman,serif" font-size="9.00">Yes</text>
</g>
<!-- 0.4 &#45; File USRT mantis -->
<g id="node5" class="node">
<title>0.4 &#45; File USRT mantis</title>
<polygon fill="none" stroke="black" points="281.26,-180 180.26,-180 180.26,-144 281.26,-144 281.26,-180"/>
<text text-anchor="middle" x="230.76" y="-159.8" font-family="Times New Roman,serif" font-size="9.00">0.4 &#45; File USRT mantis</text>
</g>
<!-- 0.2 &#45; Spec only?&#45;&gt;0.4 &#45; File USRT mantis -->
<g id="edge4" class="edge">
<title>0.2 &#45; Spec only?:w&#45;&gt;0.4 &#45; File USRT mantis</title>
<path fill="none" stroke="red" stroke-dasharray="5,2" d="M168.76,-414C141.74,-414 138.57,-393.81 127.88,-369 112.5,-333.3 90.35,-226.74 127.88,-189 140.11,-176.7 157.23,-169.79 173.99,-165.97"/>
<polygon fill="red" stroke="red" points="180.14,-164.7 174.81,-168.56 177.2,-165.31 174.26,-165.91 174.26,-165.91 174.26,-165.91 177.2,-165.31 173.71,-163.27 180.14,-164.7 180.14,-164.7"/>
<text text-anchor="middle" x="102.88" y="-230.8" font-family="Times New Roman,serif" font-size="9.00">No</text>
</g>
<!-- 5.4 -->
<g id="node8" class="node">
<title>5.4</title>
<g id="a_node8"><a xlink:href="5.dot.svg" xlink:title="5.4">
<ellipse fill="none" stroke="black" cx="230.76" cy="-270" rx="18" ry="18"/>
<text text-anchor="middle" x="230.76" y="-267.8" font-family="Times New Roman,serif" font-size="9.00">5.4</text>
</a>
</g>
</g>
<!-- 0.3 &#45; Future Spec arch change?&#45;&gt;5.4 -->
<g id="edge5" class="edge">
<title>0.3 &#45; Future Spec arch change?&#45;&gt;5.4</title>
<path fill="none" stroke="blue" stroke-dasharray="5,2" d="M230.76,-323.59C230.76,-314.67 230.76,-303.84 230.76,-294.25"/>
<polygon fill="blue" stroke="blue" points="230.76,-288.17 233.46,-294.17 230.76,-291.17 230.76,-294.17 230.76,-294.17 230.76,-294.17 230.76,-291.17 228.06,-294.17 230.76,-288.17 230.76,-288.17"/>
<text text-anchor="middle" x="222.76" y="-303.8" font-family="Times New Roman,serif" font-size="9.00">Yes</text>
</g>
<!-- 5.3 -->
<g id="node9" class="node">
<title>5.3</title>
<g id="a_node9"><a xlink:href="5.dot.svg" xlink:title="5.3">
<ellipse fill="none" stroke="black" cx="230.76" cy="-216" rx="18" ry="18"/>
<text text-anchor="middle" x="230.76" y="-213.8" font-family="Times New Roman,serif" font-size="9.00">5.3</text>
</a>
</g>
</g>
<!-- 0.3 &#45; Future Spec arch change?&#45;&gt;5.3 -->
<g id="edge6" class="edge">
<title>0.3 &#45; Future Spec arch change?:w&#45;&gt;5.3</title>
<path fill="none" stroke="red" stroke-dasharray="5,2" d="M127.88,-342C83.88,-342 95.92,-273.24 127.88,-243 149.09,-222.93 183.35,-217.35 206.45,-216.02"/>
<polygon fill="red" stroke="red" points="212.64,-215.75 206.77,-218.71 209.65,-215.88 206.65,-216.01 206.65,-216.01 206.65,-216.01 209.65,-215.88 206.53,-213.32 212.64,-215.75 212.64,-215.75"/>
<text text-anchor="middle" x="102.88" y="-276.8" font-family="Times New Roman,serif" font-size="9.00">No</text>
</g>
<!-- 0.4 &#45; File USRT mantis&#45;&gt;0.5 &#45; File security BZ# -->
<g id="edge7" class="edge">
<title>0.4 &#45; File USRT mantis&#45;&gt;0.5 &#45; File security BZ#</title>
<path fill="none" stroke="black" stroke-dasharray="5,2" d="M230.76,-143.95C230.76,-134.11 230.76,-124.26 230.76,-114.41"/>
<polygon fill="black" stroke="black" points="230.76,-108.28 233.46,-114.28 230.76,-111.28 230.76,-114.28 230.76,-114.28 230.76,-114.28 230.76,-111.28 228.06,-114.28 230.76,-108.28 230.76,-108.28"/>
</g>
<!-- 1 -->
<g id="node7" class="node">
<title>1</title>
<g id="a_node7"><a xlink:href="1.dot.svg" xlink:title="1">
<ellipse fill="none" stroke="black" cx="230.76" cy="-18" rx="18" ry="18"/>
<text text-anchor="middle" x="230.76" y="-15.8" font-family="Times New Roman,serif" font-size="9.00">1</text>
</a>
</g>
</g>
<!-- 0.5 &#45; File security BZ#&#45;&gt;1 -->
<g id="edge9" class="edge">
<title>0.5 &#45; File security BZ#&#45;&gt;1</title>
<path fill="none" stroke="black" stroke-dasharray="5,2" d="M230.76,-71.86C230.76,-61.96 230.76,-52.06 230.76,-42.16"/>
<polygon fill="black" stroke="black" points="230.76,-36 233.46,-42 230.76,-39 230.76,-42 230.76,-42 230.76,-42 230.76,-39 228.06,-42 230.76,-36 230.76,-36"/>
</g>
</g>
</svg>
