<?xml version="1.0" encoding="UTF-8" standalone="no"?>
<!DOCTYPE svg PUBLIC "-//W3C//DTD SVG 1.1//EN"
 "http://www.w3.org/Graphics/SVG/1.1/DTD/svg11.dtd">
<!-- Generated by graphviz version 2.41.20190326.1719 (20190326.1719)
 -->
<!-- Title: security_bz_flowchart Pages: 1 -->
<svg width="422pt" height="440pt"
 viewBox="0.00 0.00 422.47 440.00" xmlns="http://www.w3.org/2000/svg" xmlns:xlink="http://www.w3.org/1999/xlink">
<g id="graph0" class="graph" transform="scale(1 1) rotate(0) translate(4 436)">
<title>security_bz_flowchart</title>
<polygon fill="white" stroke="transparent" points="-4,4 -4,-436 418.47,-436 418.47,4 -4,4"/>
<!-- 1 &#45; Triage -->
<g id="node1" class="node">
<title>1 &#45; Triage</title>
<g id="a_node1"><a xlink:href="flowchart.dot.svg" xlink:title="1 &#45; Triage">
<polygon fill="none" stroke="black" points="311.65,-432 257.65,-432 257.65,-396 311.65,-396 311.65,-432"/>
<text text-anchor="middle" x="284.65" y="-411.8" font-family="Times New Roman,serif" font-size="9.00">1 &#45; Triage</text>
</a>
</g>
</g>
<!-- 1.1 &#45; Impact stable tag or UDK branch? -->
<g id="node2" class="node">
<title>1.1 &#45; Impact stable tag or UDK branch?</title>
<polygon fill="none" stroke="black" points="284.65,-360 155,-342 284.65,-324 414.29,-342 284.65,-360"/>
<text text-anchor="middle" x="284.65" y="-339.8" font-family="Times New Roman,serif" font-size="9.00">1.1 &#45; Impact stable tag or UDK branch?</text>
</g>
<!-- 1 &#45; Triage&#45;&gt;1.1 &#45; Impact stable tag or UDK branch? -->
<g id="edge1" class="edge">
<title>1 &#45; Triage&#45;&gt;1.1 &#45; Impact stable tag or UDK branch?</title>
<path fill="none" stroke="black" stroke-dasharray="5,2" d="M284.65,-395.95C284.65,-386.11 284.65,-376.26 284.65,-366.41"/>
<polygon fill="black" stroke="black" points="284.65,-360.28 287.35,-366.28 284.65,-363.28 284.65,-366.28 284.65,-366.28 284.65,-366.28 284.65,-363.28 281.95,-366.28 284.65,-360.28 284.65,-360.28"/>
</g>
<!-- 1.2 &#45; Security issue? -->
<g id="node3" class="node">
<title>1.2 &#45; Security issue?</title>
<polygon fill="none" stroke="black" points="284.65,-288 211.81,-270 284.65,-252 357.48,-270 284.65,-288"/>
<text text-anchor="middle" x="284.65" y="-267.8" font-family="Times New Roman,serif" font-size="9.00">1.2 &#45; Security issue?</text>
</g>
<!-- 1.1 &#45; Impact stable tag or UDK branch?&#45;&gt;1.2 &#45; Security issue? -->
<g id="edge2" class="edge">
<title>1.1 &#45; Impact stable tag or UDK branch?&#45;&gt;1.2 &#45; Security issue?</title>
<path fill="none" stroke="blue" stroke-dasharray="5,2" d="M284.65,-323.59C284.65,-314.67 284.65,-303.84 284.65,-294.25"/>
<polygon fill="blue" stroke="blue" points="284.65,-288.17 287.35,-294.17 284.65,-291.17 284.65,-294.17 284.65,-294.17 284.65,-294.17 284.65,-291.17 281.95,-294.17 284.65,-288.17 284.65,-288.17"/>
<text text-anchor="middle" x="276.65" y="-303.8" font-family="Times New Roman,serif" font-size="9.00">Yes</text>
</g>
<!-- 5.2 -->
<g id="node7" class="node">
<title>5.2</title>
<g id="a_node7"><a xlink:href="5.dot.svg" xlink:title="5.2">
<ellipse fill="none" stroke="black" cx="284.65" cy="-72" rx="18" ry="18"/>
<text text-anchor="middle" x="284.65" y="-69.8" font-family="Times New Roman,serif" font-size="9.00">5.2</text>
</a>
</g>
</g>
<!-- 1.1 &#45; Impact stable tag or UDK branch?&#45;&gt;5.2 -->
<g id="edge7" class="edge">
<title>1.1 &#45; Impact stable tag or UDK branch?:w&#45;&gt;5.2</title>
<path fill="none" stroke="red" stroke-dasharray="5,2" d="M154.82,-342C127.82,-342 137.27,-119.52 154.82,-99 180.67,-68.79 230.73,-67.05 260.57,-69.12"/>
<polygon fill="red" stroke="red" points="266.62,-69.61 260.42,-71.82 263.63,-69.37 260.64,-69.13 260.64,-69.13 260.64,-69.13 263.63,-69.37 260.85,-66.43 266.62,-69.61 266.62,-69.61"/>
<text text-anchor="middle" x="129.82" y="-222.8" font-family="Times New Roman,serif" font-size="9.00">No</text>
</g>
<!-- 1.3 &#45; Functional issue? -->
<g id="node4" class="node">
<title>1.3 &#45; Functional issue?</title>
<polygon fill="none" stroke="black" points="284.65,-216 204.61,-198 284.65,-180 364.68,-198 284.65,-216"/>
<text text-anchor="middle" x="284.65" y="-195.8" font-family="Times New Roman,serif" font-size="9.00">1.3 &#45; Functional issue?</text>
</g>
<!-- 1.2 &#45; Security issue?&#45;&gt;1.3 &#45; Functional issue? -->
<g id="edge3" class="edge">
<title>1.2 &#45; Security issue?&#45;&gt;1.3 &#45; Functional issue?</title>
<path fill="none" stroke="red" stroke-dasharray="5,2" d="M284.65,-251.59C284.65,-242.67 284.65,-231.84 284.65,-222.25"/>
<polygon fill="red" stroke="red" points="284.65,-216.17 287.35,-222.17 284.65,-219.17 284.65,-222.17 284.65,-222.17 284.65,-222.17 284.65,-219.17 281.95,-222.17 284.65,-216.17 284.65,-216.17"/>
<text text-anchor="middle" x="276.65" y="-231.8" font-family="Times New Roman,serif" font-size="9.00">No</text>
</g>
<!-- 2 -->
<g id="node5" class="node">
<title>2</title>
<g id="a_node5"><a xlink:href="2.dot.svg" xlink:title="2">
<ellipse fill="none" stroke="black" cx="284.65" cy="-18" rx="18" ry="18"/>
<text text-anchor="middle" x="284.65" y="-15.8" font-family="Times New Roman,serif" font-size="9.00">2</text>
</a>
</g>
</g>
<!-- 1.2 &#45; Security issue?&#45;&gt;2 -->
<g id="edge4" class="edge">
<title>1.2 &#45; Security issue?:w&#45;&gt;2</title>
<path fill="none" stroke="blue" stroke-dasharray="5,2" d="M210.65,-270C178.78,-270 169.28,-253.4 154.82,-225 107.78,-132.57 117.63,-80.74 154.82,-45 183.07,-17.86 231.11,-14.87 260.16,-15.92"/>
<polygon fill="blue" stroke="blue" points="266.41,-16.21 260.29,-18.63 263.41,-16.07 260.41,-15.93 260.41,-15.93 260.41,-15.93 263.41,-16.07 260.54,-13.23 266.41,-16.21 266.41,-16.21"/>
<text text-anchor="middle" x="129.82" y="-75.8" font-family="Times New Roman,serif" font-size="9.00">Yes</text>
</g>
<!-- 5.1 -->
<g id="node6" class="node">
<title>5.1</title>
<g id="a_node6"><a xlink:href="5.dot.svg" xlink:title="5.1">
<ellipse fill="none" stroke="black" cx="284.65" cy="-126" rx="18" ry="18"/>
<text text-anchor="middle" x="284.65" y="-123.8" font-family="Times New Roman,serif" font-size="9.00">5.1</text>
</a>
</g>
</g>
<!-- 1.3 &#45; Functional issue?&#45;&gt;5.1 -->
<g id="edge5" class="edge">
<title>1.3 &#45; Functional issue?&#45;&gt;5.1</title>
<path fill="none" stroke="red" stroke-dasharray="5,2" d="M284.65,-179.59C284.65,-170.67 284.65,-159.84 284.65,-150.25"/>
<polygon fill="red" stroke="red" points="284.65,-144.17 287.35,-150.17 284.65,-147.17 284.65,-150.17 284.65,-150.17 284.65,-150.17 284.65,-147.17 281.95,-150.17 284.65,-144.17 284.65,-144.17"/>
<text text-anchor="middle" x="276.65" y="-159.8" font-family="Times New Roman,serif" font-size="9.00">No</text>
</g>
<!-- 1.3 &#45; Functional issue?&#45;&gt;5.2 -->
<g id="edge6" class="edge">
<title>1.3 &#45; Functional issue?:w&#45;&gt;5.2</title>
<path fill="none" stroke="blue" stroke-dasharray="5,2" d="M203.65,-198C154.59,-198 119.84,-133.39 154.82,-99 182.75,-71.54 230.9,-68.66 260.05,-69.81"/>
<polygon fill="blue" stroke="blue" points="266.33,-70.13 260.2,-72.52 263.33,-69.98 260.33,-69.82 260.33,-69.82 260.33,-69.82 263.33,-69.98 260.47,-67.13 266.33,-70.13 266.33,-70.13"/>
<text text-anchor="middle" x="129.82" y="-132.8" font-family="Times New Roman,serif" font-size="9.00">Yes</text>
</g>
</g>
</svg>
