<?xml version="1.0" encoding="UTF-8" standalone="no"?>
<!DOCTYPE svg PUBLIC "-//W3C//DTD SVG 1.1//EN"
 "http://www.w3.org/Graphics/SVG/1.1/DTD/svg11.dtd">
<!-- Generated by graphviz version 2.41.20190326.1719 (20190326.1719)
 -->
<!-- Title: security_bz_flowchart Pages: 1 -->
<svg width="227pt" height="530pt"
 viewBox="0.00 0.00 226.51 530.00" xmlns="http://www.w3.org/2000/svg" xmlns:xlink="http://www.w3.org/1999/xlink">
<g id="graph0" class="graph" transform="scale(1 1) rotate(0) translate(4 526)">
<title>security_bz_flowchart</title>
<polygon fill="white" stroke="transparent" points="-4,4 -4,-526 222.51,-526 222.51,4 -4,4"/>
<!-- 2 &#45; Mitigation -->
<g id="node1" class="node">
<title>2 &#45; Mitigation</title>
<g id="a_node1"><a xlink:href="flowchart.dot.svg" xlink:title="2 &#45; Mitigation">
<polygon fill="none" stroke="black" points="187.51,-522 120.51,-522 120.51,-486 187.51,-486 187.51,-522"/>
<text text-anchor="middle" x="154.01" y="-501.8" font-family="Times New Roman,serif" font-size="9.00">2 &#45; Mitigation</text>
</a>
</g>
</g>
<!-- 2.1 &#45; Evaluate CVSS score -->
<g id="node2" class="node">
<title>2.1 &#45; Evaluate CVSS score</title>
<polygon fill="none" stroke="black" points="209.01,-450 99.01,-450 99.01,-414 209.01,-414 209.01,-450"/>
<text text-anchor="middle" x="154.01" y="-429.8" font-family="Times New Roman,serif" font-size="9.00">2.1 &#45; Evaluate CVSS score</text>
</g>
<!-- 2 &#45; Mitigation&#45;&gt;2.1 &#45; Evaluate CVSS score -->
<g id="edge1" class="edge">
<title>2 &#45; Mitigation&#45;&gt;2.1 &#45; Evaluate CVSS score</title>
<path fill="none" stroke="black" stroke-dasharray="5,2" d="M154.01,-485.95C154.01,-476.11 154.01,-466.26 154.01,-456.41"/>
<polygon fill="black" stroke="black" points="154.01,-450.28 156.71,-456.28 154.01,-453.28 154.01,-456.28 154.01,-456.28 154.01,-456.28 154.01,-453.28 151.31,-456.28 154.01,-450.28 154.01,-450.28"/>
</g>
<!-- 2.2 &#45; Discuss solution -->
<g id="node3" class="node">
<title>2.2 &#45; Discuss solution</title>
<polygon fill="none" stroke="black" points="201.51,-378 106.51,-378 106.51,-342 201.51,-342 201.51,-378"/>
<text text-anchor="middle" x="154.01" y="-357.8" font-family="Times New Roman,serif" font-size="9.00">2.2 &#45; Discuss solution</text>
</g>
<!-- 2.1 &#45; Evaluate CVSS score&#45;&gt;2.2 &#45; Discuss solution -->
<g id="edge2" class="edge">
<title>2.1 &#45; Evaluate CVSS score&#45;&gt;2.2 &#45; Discuss solution</title>
<path fill="none" stroke="black" stroke-dasharray="5,2" d="M154.01,-413.95C154.01,-404.11 154.01,-394.26 154.01,-384.41"/>
<polygon fill="black" stroke="black" points="154.01,-378.28 156.71,-384.28 154.01,-381.28 154.01,-384.28 154.01,-384.28 154.01,-384.28 154.01,-381.28 151.31,-384.28 154.01,-378.28 154.01,-378.28"/>
</g>
<!-- 2.3 &#45; Attach patch to BZ# -->
<g id="node4" class="node">
<title>2.3 &#45; Attach patch to BZ#</title>
<polygon fill="none" stroke="black" points="209.51,-306 98.51,-306 98.51,-270 209.51,-270 209.51,-306"/>
<text text-anchor="middle" x="154.01" y="-285.8" font-family="Times New Roman,serif" font-size="9.00">2.3 &#45; Attach patch to BZ#</text>
</g>
<!-- 2.2 &#45; Discuss solution&#45;&gt;2.3 &#45; Attach patch to BZ# -->
<g id="edge3" class="edge">
<title>2.2 &#45; Discuss solution&#45;&gt;2.3 &#45; Attach patch to BZ#</title>
<path fill="none" stroke="black" stroke-dasharray="5,2" d="M154.01,-341.95C154.01,-332.11 154.01,-322.26 154.01,-312.41"/>
<polygon fill="black" stroke="black" points="154.01,-306.28 156.71,-312.28 154.01,-309.28 154.01,-312.28 154.01,-312.28 154.01,-312.28 154.01,-309.28 151.31,-312.28 154.01,-306.28 154.01,-306.28"/>
</g>
<!-- 2.4 &#45; Review the patch -->
<g id="node5" class="node">
<title>2.4 &#45; Review the patch</title>
<polygon fill="none" stroke="black" points="203.01,-234 105.01,-234 105.01,-198 203.01,-198 203.01,-234"/>
<text text-anchor="middle" x="154.01" y="-213.8" font-family="Times New Roman,serif" font-size="9.00">2.4 &#45; Review the patch</text>
</g>
<!-- 2.3 &#45; Attach patch to BZ#&#45;&gt;2.4 &#45; Review the patch -->
<g id="edge4" class="edge">
<title>2.3 &#45; Attach patch to BZ#&#45;&gt;2.4 &#45; Review the patch</title>
<path fill="none" stroke="black" stroke-dasharray="5,2" d="M154.01,-269.95C154.01,-260.11 154.01,-250.26 154.01,-240.41"/>
<polygon fill="black" stroke="black" points="154.01,-234.28 156.71,-240.28 154.01,-237.28 154.01,-240.28 154.01,-240.28 154.01,-240.28 154.01,-237.28 151.31,-240.28 154.01,-234.28 154.01,-234.28"/>
</g>
<!-- 2.5 &#45; Patch good? -->
<g id="node6" class="node">
<title>2.5 &#45; Patch good?</title>
<polygon fill="none" stroke="black" points="154.01,-162 89.5,-144 154.01,-126 218.51,-144 154.01,-162"/>
<text text-anchor="middle" x="154.01" y="-141.8" font-family="Times New Roman,serif" font-size="9.00">2.5 &#45; Patch good?</text>
</g>
<!-- 2.4 &#45; Review the patch&#45;&gt;2.5 &#45; Patch good? -->
<g id="edge5" class="edge">
<title>2.4 &#45; Review the patch&#45;&gt;2.5 &#45; Patch good?</title>
<path fill="none" stroke="black" stroke-dasharray="5,2" d="M154.01,-197.95C154.01,-188.11 154.01,-178.26 154.01,-168.41"/>
<polygon fill="black" stroke="black" points="154.01,-162.28 156.71,-168.28 154.01,-165.28 154.01,-168.28 154.01,-168.28 154.01,-168.28 154.01,-165.28 151.31,-168.28 154.01,-162.28 154.01,-162.28"/>
</g>
<!-- 2.6 &#45; Update patch -->
<g id="node7" class="node">
<title>2.6 &#45; Update patch</title>
<polygon fill="none" stroke="black" points="196.51,-90 111.51,-90 111.51,-54 196.51,-54 196.51,-90"/>
<text text-anchor="middle" x="154.01" y="-69.8" font-family="Times New Roman,serif" font-size="9.00">2.6 &#45; Update patch</text>
</g>
<!-- 2.5 &#45; Patch good?&#45;&gt;2.6 &#45; Update patch -->
<g id="edge6" class="edge">
<title>2.5 &#45; Patch good?&#45;&gt;2.6 &#45; Update patch</title>
<path fill="none" stroke="red" stroke-dasharray="5,2" d="M154.01,-125.59C154.01,-116.67 154.01,-105.84 154.01,-96.25"/>
<polygon fill="red" stroke="red" points="154.01,-90.17 156.71,-96.17 154.01,-93.17 154.01,-96.17 154.01,-96.17 154.01,-96.17 154.01,-93.17 151.31,-96.17 154.01,-90.17 154.01,-90.17"/>
<text text-anchor="middle" x="146.01" y="-105.8" font-family="Times New Roman,serif" font-size="9.00">No</text>
</g>
<!-- 3 -->
<g id="node8" class="node">
<title>3</title>
<g id="a_node8"><a xlink:href="3.dot.svg" xlink:title="3">
<ellipse fill="none" stroke="black" cx="154.01" cy="-18" rx="18" ry="18"/>
<text text-anchor="middle" x="154.01" y="-15.8" font-family="Times New Roman,serif" font-size="9.00">3</text>
</a>
</g>
</g>
<!-- 2.5 &#45; Patch good?&#45;&gt;3 -->
<g id="edge8" class="edge">
<title>2.5 &#45; Patch good?:w&#45;&gt;3</title>
<path fill="none" stroke="blue" stroke-dasharray="5,2" d="M89.5,-144C70.85,-144 64.26,-102.89 71.5,-76 75.65,-60.62 77.53,-55.51 89.5,-45 101.21,-34.72 117.39,-27.96 130.62,-23.78"/>
<polygon fill="blue" stroke="blue" points="136.46,-22.03 131.48,-26.34 133.59,-22.89 130.71,-23.75 130.71,-23.75 130.71,-23.75 133.59,-22.89 129.94,-21.16 136.46,-22.03 136.46,-22.03"/>
<text text-anchor="middle" x="64.5" y="-78.8" font-family="Times New Roman,serif" font-size="9.00">Yes</text>
</g>
<!-- 2.6 &#45; Update patch&#45;&gt;2.3 &#45; Attach patch to BZ# -->
<g id="edge7" class="edge">
<title>2.6 &#45; Update patch:w&#45;&gt;2.3 &#45; Attach patch to BZ#:w</title>
<path fill="none" stroke="black" stroke-dasharray="5,2" d="M110.01,-72C82.66,-72 87.27,-99.5 80.5,-126 68.63,-172.51 73.41,-186.53 80.5,-234 83.86,-256.49 74.08,-282.57 90.89,-287.26"/>
<polygon fill="black" stroke="black" points="97.01,-288 90.72,-289.96 94.03,-287.64 91.05,-287.28 91.05,-287.28 91.05,-287.28 94.03,-287.64 91.38,-284.6 97.01,-288 97.01,-288"/>
</g>
</g>
</svg>
