<?xml version="1.0" encoding="UTF-8" standalone="no"?>
<!DOCTYPE svg PUBLIC "-//W3C//DTD SVG 1.1//EN"
 "http://www.w3.org/Graphics/SVG/1.1/DTD/svg11.dtd">
<!-- Generated by graphviz version 2.41.20190326.1719 (20190326.1719)
 -->
<!-- Title: security_bz_flowchart Pages: 1 -->
<svg width="157pt" height="368pt"
 viewBox="0.00 0.00 157.00 368.00" xmlns="http://www.w3.org/2000/svg" xmlns:xlink="http://www.w3.org/1999/xlink">
<g id="graph0" class="graph" transform="scale(1 1) rotate(0) translate(4 364)">
<title>security_bz_flowchart</title>
<polygon fill="white" stroke="transparent" points="-4,4 -4,-364 153,-364 153,4 -4,4"/>
<!-- 3 &#45; Embargo -->
<g id="node1" class="node">
<title>3 &#45; Embargo</title>
<g id="a_node1"><a xlink:href="flowchart.dot.svg" xlink:title="3 &#45; Embargo">
<polygon fill="none" stroke="black" points="104.5,-360 44.5,-360 44.5,-324 104.5,-324 104.5,-360"/>
<text text-anchor="middle" x="74.5" y="-339.8" font-family="Times New Roman,serif" font-size="9.00">3 &#45; Embargo</text>
</a>
</g>
</g>
<!-- 3.1 &#45; Propose embargo period -->
<g id="node2" class="node">
<title>3.1 &#45; Propose embargo period</title>
<polygon fill="none" stroke="black" points="136,-306 13,-306 13,-270 136,-270 136,-306"/>
<text text-anchor="middle" x="74.5" y="-285.8" font-family="Times New Roman,serif" font-size="9.00">3.1 &#45; Propose embargo period</text>
</g>
<!-- 3 &#45; Embargo&#45;&gt;3.1 &#45; Propose embargo period -->
<g id="edge1" class="edge">
<title>3 &#45; Embargo&#45;&gt;3.1 &#45; Propose embargo period</title>
<path fill="none" stroke="black" stroke-dasharray="5,2" d="M74.5,-323.79C74.5,-319.93 74.5,-316.07 74.5,-312.21"/>
<polygon fill="black" stroke="black" points="74.5,-306.14 77.2,-312.14 74.5,-309.14 74.5,-312.14 74.5,-312.14 74.5,-312.14 74.5,-309.14 71.8,-312.14 74.5,-306.14 74.5,-306.14"/>
</g>
<!-- 3.2 &#45; Anounce embargo start -->
<g id="node3" class="node">
<title>3.2 &#45; Anounce embargo start</title>
<polygon fill="none" stroke="black" points="134,-252 15,-252 15,-216 134,-216 134,-252"/>
<text text-anchor="middle" x="74.5" y="-231.8" font-family="Times New Roman,serif" font-size="9.00">3.2 &#45; Anounce embargo start</text>
</g>
<!-- 3.1 &#45; Propose embargo period&#45;&gt;3.2 &#45; Anounce embargo start -->
<g id="edge2" class="edge">
<title>3.1 &#45; Propose embargo period&#45;&gt;3.2 &#45; Anounce embargo start</title>
<path fill="none" stroke="black" stroke-dasharray="5,2" d="M74.5,-269.79C74.5,-265.93 74.5,-262.07 74.5,-258.21"/>
<polygon fill="black" stroke="black" points="74.5,-252.14 77.2,-258.14 74.5,-255.14 74.5,-258.14 74.5,-258.14 74.5,-258.14 74.5,-255.14 71.8,-258.14 74.5,-252.14 74.5,-252.14"/>
</g>
<!-- 3.3 &#45; Send courtesy update to USRT -->
<g id="node4" class="node">
<title>3.3 &#45; Send courtesy update to USRT</title>
<polygon fill="none" stroke="black" points="149,-198 0,-198 0,-162 149,-162 149,-198"/>
<text text-anchor="middle" x="74.5" y="-177.8" font-family="Times New Roman,serif" font-size="9.00">3.3 &#45; Send courtesy update to USRT</text>
</g>
<!-- 3.2 &#45; Anounce embargo start&#45;&gt;3.3 &#45; Send courtesy update to USRT -->
<g id="edge3" class="edge">
<title>3.2 &#45; Anounce embargo start&#45;&gt;3.3 &#45; Send courtesy update to USRT</title>
<path fill="none" stroke="black" stroke-dasharray="5,2" d="M74.5,-215.79C74.5,-211.93 74.5,-208.07 74.5,-204.21"/>
<polygon fill="black" stroke="black" points="74.5,-198.14 77.2,-204.14 74.5,-201.14 74.5,-204.14 74.5,-204.14 74.5,-204.14 74.5,-201.14 71.8,-204.14 74.5,-198.14 74.5,-198.14"/>
</g>
<!-- 3.4 &#45; &lt;Embargo Period&gt; -->
<g id="node5" class="node">
<title>3.4 &#45; &lt;Embargo Period&gt;</title>
<polygon fill="none" stroke="black" points="126,-144 23,-144 23,-108 126,-108 126,-144"/>
<text text-anchor="middle" x="74.5" y="-123.8" font-family="Times New Roman,serif" font-size="9.00">3.4 &#45; &lt;Embargo Period&gt;</text>
</g>
<!-- 3.3 &#45; Send courtesy update to USRT&#45;&gt;3.4 &#45; &lt;Embargo Period&gt; -->
<g id="edge4" class="edge">
<title>3.3 &#45; Send courtesy update to USRT&#45;&gt;3.4 &#45; &lt;Embargo Period&gt;</title>
<path fill="none" stroke="black" stroke-dasharray="5,2" d="M74.5,-161.79C74.5,-157.93 74.5,-154.07 74.5,-150.21"/>
<polygon fill="black" stroke="black" points="74.5,-144.14 77.2,-150.14 74.5,-147.14 74.5,-150.14 74.5,-150.14 74.5,-150.14 74.5,-147.14 71.8,-150.14 74.5,-144.14 74.5,-144.14"/>
</g>
<!-- 3.5 &#45; Anounce embargo end -->
<g id="node6" class="node">
<title>3.5 &#45; Anounce embargo end</title>
<polygon fill="none" stroke="black" points="132,-90 17,-90 17,-54 132,-54 132,-90"/>
<text text-anchor="middle" x="74.5" y="-69.8" font-family="Times New Roman,serif" font-size="9.00">3.5 &#45; Anounce embargo end</text>
</g>
<!-- 3.4 &#45; &lt;Embargo Period&gt;&#45;&gt;3.5 &#45; Anounce embargo end -->
<g id="edge5" class="edge">
<title>3.4 &#45; &lt;Embargo Period&gt;&#45;&gt;3.5 &#45; Anounce embargo end</title>
<path fill="none" stroke="black" stroke-dasharray="5,2" d="M74.5,-107.79C74.5,-103.93 74.5,-100.07 74.5,-96.21"/>
<polygon fill="black" stroke="black" points="74.5,-90.14 77.2,-96.14 74.5,-93.14 74.5,-96.14 74.5,-96.14 74.5,-96.14 74.5,-93.14 71.8,-96.14 74.5,-90.14 74.5,-90.14"/>
</g>
<!-- 4 -->
<g id="node7" class="node">
<title>4</title>
<g id="a_node7"><a xlink:href="4.dot.svg" xlink:title="4">
<ellipse fill="none" stroke="black" cx="74.5" cy="-18" rx="18" ry="18"/>
<text text-anchor="middle" x="74.5" y="-15.8" font-family="Times New Roman,serif" font-size="9.00">4</text>
</a>
</g>
</g>
<!-- 3.5 &#45; Anounce embargo end&#45;&gt;4 -->
<g id="edge6" class="edge">
<title>3.5 &#45; Anounce embargo end&#45;&gt;4</title>
<path fill="none" stroke="black" stroke-dasharray="5,2" d="M74.5,-53.79C74.5,-49.93 74.5,-46.07 74.5,-42.21"/>
<polygon fill="black" stroke="black" points="74.5,-36.14 77.2,-42.14 74.5,-39.14 74.5,-42.14 74.5,-42.14 74.5,-42.14 74.5,-39.14 71.8,-42.14 74.5,-36.14 74.5,-36.14"/>
</g>
</g>
</svg>
