<?xml version="1.0" encoding="UTF-8" standalone="no"?>
<!DOCTYPE svg PUBLIC "-//W3C//DTD SVG 1.1//EN"
 "http://www.w3.org/Graphics/SVG/1.1/DTD/svg11.dtd">
<!-- Generated by graphviz version 2.41.20190326.1719 (20190326.1719)
 -->
<!-- Title: security_bz_flowchart Pages: 1 -->
<svg width="252pt" height="504pt"
 viewBox="0.00 0.00 252.01 504.00" xmlns="http://www.w3.org/2000/svg" xmlns:xlink="http://www.w3.org/1999/xlink">
<g id="graph0" class="graph" transform="scale(1 1) rotate(0) translate(4 500)">
<title>security_bz_flowchart</title>
<polygon fill="white" stroke="transparent" points="-4,4 -4,-500 248.01,-500 248.01,4 -4,4"/>
<!-- 4 &#45; Disclosure -->
<g id="node1" class="node">
<title>4 &#45; Disclosure</title>
<g id="a_node1"><a xlink:href="flowchart.dot.svg" xlink:title="4 &#45; Disclosure">
<polygon fill="none" stroke="black" points="173,-496 106,-496 106,-460 173,-460 173,-496"/>
<text text-anchor="middle" x="139.5" y="-475.8" font-family="Times New Roman,serif" font-size="9.00">4 &#45; Disclosure</text>
</a>
</g>
</g>
<!-- 4.1 &#45; Apply CVE number and attach it to BZ# -->
<g id="node2" class="node">
<title>4.1 &#45; Apply CVE number and attach it to BZ#</title>
<polygon fill="none" stroke="black" points="231.5,-424 47.5,-424 47.5,-388 231.5,-388 231.5,-424"/>
<text text-anchor="middle" x="139.5" y="-403.8" font-family="Times New Roman,serif" font-size="9.00">4.1 &#45; Apply CVE number and attach it to BZ#</text>
</g>
<!-- 4 &#45; Disclosure&#45;&gt;4.1 &#45; Apply CVE number and attach it to BZ# -->
<g id="edge1" class="edge">
<title>4 &#45; Disclosure&#45;&gt;4.1 &#45; Apply CVE number and attach it to BZ#</title>
<path fill="none" stroke="black" stroke-dasharray="5,2" d="M139.5,-459.95C139.5,-450.11 139.5,-440.26 139.5,-430.41"/>
<polygon fill="black" stroke="black" points="139.5,-424.28 142.2,-430.28 139.5,-427.28 139.5,-430.28 139.5,-430.28 139.5,-430.28 139.5,-427.28 136.8,-430.28 139.5,-424.28 139.5,-424.28"/>
</g>
<!-- 4.2 &#45; UEFI Spec is in embargo? -->
<g id="node3" class="node">
<title>4.2 &#45; UEFI Spec is in embargo?</title>
<polygon fill="none" stroke="black" points="139.5,-324 34.97,-306 139.5,-288 244.02,-306 139.5,-324"/>
<text text-anchor="middle" x="139.5" y="-303.8" font-family="Times New Roman,serif" font-size="9.00">4.2 &#45; UEFI Spec is in embargo?</text>
</g>
<!-- 4.1 &#45; Apply CVE number and attach it to BZ#&#45;&gt;4.2 &#45; UEFI Spec is in embargo? -->
<g id="edge2" class="edge">
<title>4.1 &#45; Apply CVE number and attach it to BZ#&#45;&gt;4.2 &#45; UEFI Spec is in embargo?</title>
<path fill="none" stroke="black" stroke-dasharray="5,2" d="M139.5,-387.82C139.5,-368.82 139.5,-349.81 139.5,-330.8"/>
<polygon fill="black" stroke="black" points="139.5,-324.36 142.2,-330.36 139.5,-327.36 139.5,-330.36 139.5,-330.36 139.5,-330.36 139.5,-327.36 136.8,-330.36 139.5,-324.36 139.5,-324.36"/>
</g>
<!-- 4.2 &#45; UEFI Spec is in embargo?&#45;&gt;4.2 &#45; UEFI Spec is in embargo? -->
<g id="edge3" class="edge">
<title>4.2 &#45; UEFI Spec is in embargo?:w&#45;&gt;4.2 &#45; UEFI Spec is in embargo?:n</title>
<path fill="none" stroke="blue" stroke-dasharray="5,2" d="M34.5,-306C-17.5,-318 -17.5,-342 87,-342 187.21,-342 191.32,-330.96 145.63,-324.77"/>
<polygon fill="blue" stroke="blue" points="139.5,-324 145.78,-322.07 142.47,-324.37 145.45,-324.75 145.45,-324.75 145.45,-324.75 142.47,-324.37 145.11,-327.42 139.5,-324 139.5,-324"/>
<text text-anchor="middle" x="139.5" y="-344.8" font-family="Times New Roman,serif" font-size="9.00">Yes</text>
</g>
<!-- 4.3 &#45; Open BZ# to public -->
<g id="node4" class="node">
<title>4.3 &#45; Open BZ# to public</title>
<polygon fill="none" stroke="black" points="194,-252 85,-252 85,-216 194,-216 194,-252"/>
<text text-anchor="middle" x="139.5" y="-231.8" font-family="Times New Roman,serif" font-size="9.00">4.3 &#45; Open BZ# to public</text>
</g>
<!-- 4.2 &#45; UEFI Spec is in embargo?&#45;&gt;4.3 &#45; Open BZ# to public -->
<g id="edge4" class="edge">
<title>4.2 &#45; UEFI Spec is in embargo?&#45;&gt;4.3 &#45; Open BZ# to public</title>
<path fill="none" stroke="red" stroke-dasharray="5,2" d="M139.5,-287.59C139.5,-278.67 139.5,-267.84 139.5,-258.25"/>
<polygon fill="red" stroke="red" points="139.5,-252.17 142.2,-258.17 139.5,-255.17 139.5,-258.17 139.5,-258.17 139.5,-258.17 139.5,-255.17 136.8,-258.17 139.5,-252.17 139.5,-252.17"/>
<text text-anchor="middle" x="131.5" y="-267.8" font-family="Times New Roman,serif" font-size="9.00">No</text>
</g>
<!-- 4.4 &#45; Open source the patch -->
<g id="node5" class="node">
<title>4.4 &#45; Open source the patch</title>
<polygon fill="none" stroke="black" points="198,-180 81,-180 81,-144 198,-144 198,-180"/>
<text text-anchor="middle" x="139.5" y="-159.8" font-family="Times New Roman,serif" font-size="9.00">4.4 &#45; Open source the patch</text>
</g>
<!-- 4.3 &#45; Open BZ# to public&#45;&gt;4.4 &#45; Open source the patch -->
<g id="edge5" class="edge">
<title>4.3 &#45; Open BZ# to public&#45;&gt;4.4 &#45; Open source the patch</title>
<path fill="none" stroke="black" stroke-dasharray="5,2" d="M139.5,-215.95C139.5,-206.11 139.5,-196.26 139.5,-186.41"/>
<polygon fill="black" stroke="black" points="139.5,-180.28 142.2,-186.28 139.5,-183.28 139.5,-186.28 139.5,-186.28 139.5,-186.28 139.5,-183.28 136.8,-186.28 139.5,-180.28 139.5,-180.28"/>
</g>
<!-- 4.5 &#45; Update Tiano Security Advisory -->
<g id="node6" class="node">
<title>4.5 &#45; Update Tiano Security Advisory</title>
<polygon fill="none" stroke="black" points="217,-108 62,-108 62,-72 217,-72 217,-108"/>
<text text-anchor="middle" x="139.5" y="-87.8" font-family="Times New Roman,serif" font-size="9.00">4.5 &#45; Update Tiano Security Advisory</text>
</g>
<!-- 4.4 &#45; Open source the patch&#45;&gt;4.5 &#45; Update Tiano Security Advisory -->
<g id="edge6" class="edge">
<title>4.4 &#45; Open source the patch&#45;&gt;4.5 &#45; Update Tiano Security Advisory</title>
<path fill="none" stroke="black" stroke-dasharray="5,2" d="M139.5,-143.95C139.5,-134.11 139.5,-124.26 139.5,-114.41"/>
<polygon fill="black" stroke="black" points="139.5,-108.28 142.2,-114.28 139.5,-111.28 139.5,-114.28 139.5,-114.28 139.5,-114.28 139.5,-111.28 136.8,-114.28 139.5,-108.28 139.5,-108.28"/>
</g>
<!-- 5 -->
<g id="node7" class="node">
<title>5</title>
<g id="a_node7"><a xlink:href="5.dot.svg" xlink:title="5">
<ellipse fill="none" stroke="black" cx="139.5" cy="-18" rx="18" ry="18"/>
<text text-anchor="middle" x="139.5" y="-15.8" font-family="Times New Roman,serif" font-size="9.00">5</text>
</a>
</g>
</g>
<!-- 4.5 &#45; Update Tiano Security Advisory&#45;&gt;5 -->
<g id="edge7" class="edge">
<title>4.5 &#45; Update Tiano Security Advisory&#45;&gt;5</title>
<path fill="none" stroke="black" stroke-dasharray="5,2" d="M139.5,-71.86C139.5,-61.96 139.5,-52.06 139.5,-42.16"/>
<polygon fill="black" stroke="black" points="139.5,-36 142.2,-42 139.5,-39 139.5,-42 139.5,-42 139.5,-42 139.5,-39 136.8,-42 139.5,-36 139.5,-36"/>
</g>
</g>
</svg>
