<?xml version="1.0" encoding="UTF-8" standalone="no"?>
<!DOCTYPE svg PUBLIC "-//W3C//DTD SVG 1.1//EN"
 "http://www.w3.org/Graphics/SVG/1.1/DTD/svg11.dtd">
<!-- Generated by graphviz version 2.41.20190326.1719 (20190326.1719)
 -->
<!-- Title: security_bz_flowchart Pages: 1 -->
<svg width="222pt" height="260pt"
 viewBox="0.00 0.00 221.77 260.00" xmlns="http://www.w3.org/2000/svg" xmlns:xlink="http://www.w3.org/1999/xlink">
<g id="graph0" class="graph" transform="scale(1 1) rotate(0) translate(4 256)">
<title>security_bz_flowchart</title>
<polygon fill="white" stroke="transparent" points="-4,4 -4,-256 217.77,-256 217.77,4 -4,4"/>
<!-- 5 &#45; Exit -->
<g id="node1" class="node">
<title>5 &#45; Exit</title>
<g id="a_node1"><a xlink:href="flowchart.dot.svg" xlink:title="5 &#45; Exit">
<polygon fill="none" stroke="black" points="150.77,-252 96.77,-252 96.77,-216 150.77,-216 150.77,-252"/>
<text text-anchor="middle" x="123.77" y="-231.8" font-family="Times New Roman,serif" font-size="9.00">5 &#45; Exit</text>
</a>
</g>
</g>
<!-- 5.1 &#45; Close BZ# and associated mantis, if any -->
<g id="node2" class="node">
<title>5.1 &#45; Close BZ# and associated mantis, if any</title>
<polygon fill="none" stroke="black" points="213.77,-198 33.77,-198 33.77,-162 213.77,-162 213.77,-198"/>
<text text-anchor="middle" x="123.77" y="-177.8" font-family="Times New Roman,serif" font-size="9.00">5.1 &#45; Close BZ# and associated mantis, if any</text>
</g>
<!-- 5 &#45; Exit&#45;&gt;5.1 &#45; Close BZ# and associated mantis, if any -->
<g id="edge1" class="edge">
<title>5 &#45; Exit&#45;&gt;5.1 &#45; Close BZ# and associated mantis, if any</title>
<path fill="none" stroke="black" stroke-dasharray="5,2" d="M118.76,-204.16C119.89,-208.11 121.56,-212.17 123.77,-216"/>
<polygon fill="black" stroke="black" points="117.44,-198.09 121.36,-203.38 118.08,-201.02 118.72,-203.95 118.72,-203.95 118.72,-203.95 118.08,-201.02 116.08,-204.53 117.44,-198.09 117.44,-198.09"/>
</g>
<!-- 5.2 &#45; Transfer to normal BZ# -->
<g id="node3" class="node">
<title>5.2 &#45; Transfer to normal BZ#</title>
<polygon fill="none" stroke="black" points="184.77,-144 62.77,-144 62.77,-108 184.77,-108 184.77,-144"/>
<text text-anchor="middle" x="123.77" y="-123.8" font-family="Times New Roman,serif" font-size="9.00">5.2 &#45; Transfer to normal BZ#</text>
</g>
<!-- 5 &#45; Exit&#45;&gt;5.2 &#45; Transfer to normal BZ# -->
<!-- 5.3 &#45; File USRT mantis -->
<g id="node4" class="node">
<title>5.3 &#45; File USRT mantis</title>
<polygon fill="none" stroke="black" points="174.27,-90 73.27,-90 73.27,-54 174.27,-54 174.27,-90"/>
<text text-anchor="middle" x="123.77" y="-69.8" font-family="Times New Roman,serif" font-size="9.00">5.3 &#45; File USRT mantis</text>
</g>
<!-- 5 &#45; Exit&#45;&gt;5.3 &#45; File USRT mantis -->
<!-- 5.4 &#45; Report to USRT -->
<g id="node5" class="node">
<title>5.4 &#45; Report to USRT</title>
<polygon fill="none" stroke="black" points="171.77,-36 75.77,-36 75.77,0 171.77,0 171.77,-36"/>
<text text-anchor="middle" x="123.77" y="-15.8" font-family="Times New Roman,serif" font-size="9.00">5.4 &#45; Report to USRT</text>
</g>
<!-- 5 &#45; Exit&#45;&gt;5.4 &#45; Report to USRT -->
</g>
</svg>
