<?xml version="1.0" encoding="UTF-8" standalone="no"?>
<!DOCTYPE svg PUBLIC "-//W3C//DTD SVG 1.1//EN"
 "http://www.w3.org/Graphics/SVG/1.1/DTD/svg11.dtd">
<!-- Generated by graphviz version 2.41.20190326.1719 (20190326.1719)
 -->
<!-- Title: security_bz_flowchart Pages: 1 -->
<svg width="160pt" height="404pt"
 viewBox="0.00 0.00 160.00 404.00" xmlns="http://www.w3.org/2000/svg" xmlns:xlink="http://www.w3.org/1999/xlink">
<g id="graph0" class="graph" transform="scale(1 1) rotate(0) translate(4 400)">
<title>security_bz_flowchart</title>
<polygon fill="white" stroke="transparent" points="-4,4 -4,-400 156,-400 156,4 -4,4"/>
<!-- 0 &#45; New Security Bug -->
<g id="node1" class="node">
<title>0 &#45; New Security Bug</title>
<g id="a_node1"><a xlink:href="0.dot.svg" xlink:title="0 &#45; New Security Bug">
<text text-anchor="middle" x="76" y="-374.2" font-family="Times New Roman,serif" font-size="16.00">0 &#45; New Security Bug</text>
</a>
</g>
</g>
<!-- 1 &#45; Triage -->
<g id="node2" class="node">
<title>1 &#45; Triage</title>
<g id="a_node2"><a xlink:href="1.dot.svg" xlink:title="1 &#45; Triage">
<text text-anchor="middle" x="76" y="-302.2" font-family="Times New Roman,serif" font-size="16.00">1 &#45; Triage</text>
</a>
</g>
</g>
<!-- 0 &#45; New Security Bug&#45;&gt;1 &#45; Triage -->
<g id="edge1" class="edge">
<title>0 &#45; New Security Bug&#45;&gt;1 &#45; Triage</title>
<path fill="none" stroke="black" stroke-dasharray="5,2" d="M76,-359.7C76,-350.8 76,-339.82 76,-330.2"/>
<polygon fill="black" stroke="black" points="76,-324.1 78.7,-330.1 76,-327.1 76,-330.1 76,-330.1 76,-330.1 76,-327.1 73.3,-330.1 76,-324.1 76,-324.1"/>
</g>
<!-- 2 &#45; Mitigation -->
<g id="node3" class="node">
<title>2 &#45; Mitigation</title>
<g id="a_node3"><a xlink:href="2.dot.svg" xlink:title="2 &#45; Mitigation">
<text text-anchor="middle" x="76" y="-230.2" font-family="Times New Roman,serif" font-size="16.00">2 &#45; Mitigation</text>
</a>
</g>
</g>
<!-- 1 &#45; Triage&#45;&gt;2 &#45; Mitigation -->
<g id="edge2" class="edge">
<title>1 &#45; Triage&#45;&gt;2 &#45; Mitigation</title>
<path fill="none" stroke="black" stroke-dasharray="5,2" d="M76,-287.7C76,-278.8 76,-267.82 76,-258.2"/>
<polygon fill="black" stroke="black" points="76,-252.1 78.7,-258.1 76,-255.1 76,-258.1 76,-258.1 76,-258.1 76,-255.1 73.3,-258.1 76,-252.1 76,-252.1"/>
</g>
<!-- 3 &#45; Embargo -->
<g id="node4" class="node">
<title>3 &#45; Embargo</title>
<g id="a_node4"><a xlink:href="3.dot.svg" xlink:title="3 &#45; Embargo">
<text text-anchor="middle" x="76" y="-158.2" font-family="Times New Roman,serif" font-size="16.00">3 &#45; Embargo</text>
</a>
</g>
</g>
<!-- 2 &#45; Mitigation&#45;&gt;3 &#45; Embargo -->
<g id="edge3" class="edge">
<title>2 &#45; Mitigation&#45;&gt;3 &#45; Embargo</title>
<path fill="none" stroke="black" stroke-dasharray="5,2" d="M76,-215.7C76,-206.8 76,-195.82 76,-186.2"/>
<polygon fill="black" stroke="black" points="76,-180.1 78.7,-186.1 76,-183.1 76,-186.1 76,-186.1 76,-186.1 76,-183.1 73.3,-186.1 76,-180.1 76,-180.1"/>
</g>
<!-- 4 &#45; Disclosure -->
<g id="node5" class="node">
<title>4 &#45; Disclosure</title>
<g id="a_node5"><a xlink:href="4.dot.svg" xlink:title="4 &#45; Disclosure">
<text text-anchor="middle" x="76" y="-86.2" font-family="Times New Roman,serif" font-size="16.00">4 &#45; Disclosure</text>
</a>
</g>
</g>
<!-- 3 &#45; Embargo&#45;&gt;4 &#45; Disclosure -->
<g id="edge4" class="edge">
<title>3 &#45; Embargo&#45;&gt;4 &#45; Disclosure</title>
<path fill="none" stroke="black" stroke-dasharray="5,2" d="M76,-143.7C76,-134.8 76,-123.82 76,-114.2"/>
<polygon fill="black" stroke="black" points="76,-108.1 78.7,-114.1 76,-111.1 76,-114.1 76,-114.1 76,-114.1 76,-111.1 73.3,-114.1 76,-108.1 76,-108.1"/>
</g>
<!-- 5 &#45; Exit -->
<g id="node6" class="node">
<title>5 &#45; Exit</title>
<g id="a_node6"><a xlink:href="5.dot.svg" xlink:title="5 &#45; Exit">
<text text-anchor="middle" x="76" y="-14.2" font-family="Times New Roman,serif" font-size="16.00">5 &#45; Exit</text>
</a>
</g>
</g>
<!-- 4 &#45; Disclosure&#45;&gt;5 &#45; Exit -->
<g id="edge5" class="edge">
<title>4 &#45; Disclosure&#45;&gt;5 &#45; Exit</title>
<path fill="none" stroke="black" stroke-dasharray="5,2" d="M76,-71.7C76,-62.8 76,-51.82 76,-42.2"/>
<polygon fill="black" stroke="black" points="76,-36.1 78.7,-42.1 76,-39.1 76,-42.1 76,-42.1 76,-42.1 76,-39.1 73.3,-42.1 76,-36.1 76,-36.1"/>
</g>
</g>
</svg>
